<svg width="50" height="50" viewBox="0 0 50 50" fill="none" xmlns="http://www.w3.org/2000/svg">
<path d="M26.7132 2.6195C26.8037 2.68091 27.5923 4.50707 27.6052 4.61696C27.6634 5.09532 26.238 11.9313 26.015 12.93C25.8405 13.7025 24.7416 14.6754 24.567 15.8228C24.2697 17.7912 25.2005 19.4072 25.1294 21.3303C25.0939 22.2774 23.0221 28.4928 22.6762 28.6705C20.8953 29.6014 20.3911 21.576 20.1681 21.1073C19.6833 20.086 16.6838 18.9321 16.0923 17.4292C15.7885 16.6567 15.4007 11.9765 14.9255 11.6145C14.5506 11.3301 10.4652 13.9514 10.1161 14.4006C8.8265 16.0652 10.5007 15.4705 11.3799 16.5597C11.9003 17.2061 12.217 18.5216 12.5725 18.777C14.2856 20.0149 16.1473 19.2165 18.5003 22.4648C20.362 25.0376 21.2088 33.0856 24.8062 28.1534C29.4799 21.7473 26.2962 16.1848 28.5781 11.6113C28.8561 11.0554 29.1082 11.0134 29.509 10.6805C38.5428 11.1426 35.4949 16.6955 35.5304 22.258C35.5498 25.3026 36.833 28.2504 36.9106 31.2853C36.2092 32.1774 26.6517 39.259 27.9608 40.4484C29.4831 41.8318 38.3909 32.032 39.5674 30.5032C40.3302 29.5109 40.4271 27.7817 41.1156 27.09C42.0464 26.1495 43.3975 26.5341 44.4253 25.7454C46.0478 24.5043 45.4628 20.9296 48.7434 21.8443C48.2748 27.9013 49.5514 29.7371 46.1512 35.8427C41.7523 43.7388 34.9874 49.0589 25.792 48.2056C25.9407 45.2805 27.8509 45.2676 27.6472 41.8544C27.6182 41.3761 24.4571 33.3119 24.2115 32.8852C23.4746 31.6215 20.0162 29.8018 19.2728 28.8289C17.9896 27.1482 18.0381 24.3265 15.5655 22.6103C14.1628 21.6374 12.76 21.7925 11.9681 21.2431C11.4057 20.8552 10.5169 18.5863 9.3598 17.6489C8.07341 16.6082 4.18515 15.5804 3.77143 13.7801C3.46115 12.4323 6.38946 8.20786 7.40759 7.6487C9.41475 6.54655 12.4594 7.42892 14.2403 6.72755C15.1777 6.35908 16.5416 3.6053 17.6438 3.30148C18.7459 2.99766 19.7285 3.67641 20.5947 3.49218C22.1461 3.16573 24.7092 1.28786 26.7229 2.61627L26.7132 2.6195Z" fill="#D6313D"/>
<path d="M24.5415 48.2057C18.4295 47.3621 9.38273 43.894 6.55138 37.9727C4.90299 34.524 4.08202 24.5561 4.69936 20.7681C5.51063 15.7744 9.98714 22.0771 11.2186 22.9207C12.6149 23.8741 14.4701 23.9291 15.5658 24.7759C16.7779 25.71 17.4857 28.4605 18.4747 29.6209C19.4638 30.7812 21.9881 31.809 22.809 33.3508C23.4522 34.5564 23.352 36.1498 23.9532 37.4782C25.1232 40.0542 27.2565 39.7569 26.2707 43.894C25.9345 45.3065 24.1051 46.3407 24.5415 48.2121V48.2057Z" fill="#D6313D"/>
<path d="M33.5363 1.37842C34.5867 2.12504 34.9067 3.99645 36.0412 4.61056C37.4084 5.35072 40.0846 4.83357 40.8958 5.79998C41.4712 6.4852 41.51 9.11293 41.9075 10.0632C42.4861 11.4433 45.0782 14.8855 44.9651 15.7226C44.8197 16.8086 41.7621 18.8546 40.9152 20.3899C40.2785 21.5437 40.55 22.675 40.2882 23.1727C39.464 24.7532 37.8124 26.3499 37.5603 28.3571C36.3256 26.6667 36.0024 22.856 36.8169 20.9458C37.0981 20.2864 38.7368 19.278 38.7432 18.2276C38.7432 17.6587 37.9643 17.1868 37.8835 16.3949C37.709 14.7142 38.3812 13.0723 36.7652 11.3302C35.0263 9.45876 31.5582 8.9901 29.5026 10.6837C29.1018 11.0134 28.8497 11.0587 28.5717 11.6146C26.1508 11.4562 28.8367 6.79871 29.1761 5.86139C29.3959 5.25052 28.9951 4.16129 29.2472 3.45345C29.6512 2.3222 32.5731 1.90849 33.5363 1.38165V1.37842Z" fill="#D6313D"/>
<path d="M29.5064 10.6804C31.562 8.98681 35.0334 9.45224 36.769 11.3269C38.3851 13.0658 37.7128 14.7109 37.8873 16.3916C37.9681 17.1867 38.7503 17.6586 38.7471 18.2243C38.7406 19.2747 37.1019 20.2831 36.8207 20.9425C36.0062 22.8559 36.3294 26.6634 37.5641 28.3538C37.8162 26.3466 39.4646 24.7532 40.292 23.1694C40.5538 22.6685 40.2823 21.5372 40.9191 20.3866C41.7659 18.8513 44.8203 16.8054 44.9689 15.7194C45.0821 14.8855 42.4899 11.44 41.9113 10.0599C42.9262 11.6598 47.2217 12.4517 47.6581 13.7962C48.0007 14.8564 47.0537 15.5093 47.2379 16.3496C47.4318 17.2417 49.8721 18.0109 49.9917 19.223C50.1113 20.435 48.8895 19.8791 48.7376 21.841C45.457 20.9263 46.042 24.5011 44.4195 25.7422C43.3917 26.5276 42.0406 26.1462 41.1098 27.0868C40.4246 27.7817 40.3244 29.5077 39.5616 30.4999C38.3851 32.0287 29.4773 41.8286 27.955 40.4452C26.646 39.2558 36.2066 32.1742 36.9048 31.2821C36.8272 28.2471 35.544 25.2994 35.5246 22.2547C35.4891 16.6922 38.537 11.1394 29.5032 10.6772L29.5064 10.6804Z" fill="#BD222D"/>
<path d="M25.7828 48.2057C25.3788 48.1669 24.9424 48.2606 24.5416 48.2057C24.1053 46.3343 25.9347 45.3 26.2708 43.8875C27.2599 39.7504 25.1234 40.051 23.9534 37.4717C23.3522 36.1433 23.4524 34.5499 22.8092 33.3443C21.985 31.8058 19.4736 30.7844 18.4749 29.6144C17.4762 28.4444 16.778 25.7035 15.566 24.7694C14.4671 23.9226 12.615 23.8677 11.2188 22.9142C9.98731 22.0706 5.5108 15.7712 4.69953 20.7616C4.08542 24.5496 4.90315 34.5176 6.55155 37.9663C3.98846 38.3703 0.92116 32.3294 0.766017 30.6422C0.633499 29.2104 1.59344 27.2905 1.267 25.7261C1.06337 24.7242 0 24.7727 0 23.2406C0 21.8217 1.10862 21.6084 1.27346 20.419C1.61607 17.9302 -1.14418 15.0148 3.76221 13.7834C4.17916 15.5869 8.06419 16.6115 9.35058 17.6523C10.5109 18.5896 11.3965 20.8585 11.9589 21.2464C12.7508 21.7926 14.1535 21.6407 15.5563 22.6136C18.0289 24.3299 17.9804 27.1483 19.2635 28.8322C20.0069 29.8051 23.4653 31.6248 24.2023 32.8886C24.4479 33.312 27.6089 41.3762 27.638 41.8577C27.8416 45.2709 25.9314 45.2838 25.7828 48.2089V48.2057Z" fill="#BD222D"/>
<path d="M33.5367 1.37839C32.5767 1.90523 29.6549 2.31571 29.2476 3.45019C28.9955 4.15803 29.3963 5.25049 29.1765 5.85814C28.8372 6.79546 26.1513 11.453 28.5721 11.6113C26.2902 16.1848 29.4739 21.7473 24.8002 28.1534C21.2028 33.0857 20.356 25.0376 18.4943 22.4649C16.1446 19.2166 14.2796 20.0117 12.5666 18.777C12.211 18.5217 11.8943 17.2029 11.3739 16.5597C10.4948 15.4705 8.82376 16.0652 10.1101 14.4007C10.456 13.9514 14.5446 11.3301 14.9196 11.6146C15.3947 11.9733 15.7826 16.6567 16.0864 17.4292C16.6811 18.9321 19.6773 20.086 20.1621 21.1074C20.3851 21.576 20.8893 29.6014 22.6702 28.6706C23.0128 28.4928 25.0879 22.2774 25.1234 21.3304C25.1945 19.4105 24.2637 17.7944 24.561 15.8228C24.7356 14.6754 25.8345 13.7025 26.009 12.9301C26.2353 11.9346 27.6574 5.09858 27.5992 4.61699C27.5863 4.5071 26.8009 2.68094 26.7072 2.61953C28.3523 1.721 32.0402 0.321483 33.5302 1.37839H33.5367Z" fill="#BD222D"/>
</svg>
