<svg width="50" height="50" viewBox="0 0 50 50" fill="none" xmlns="http://www.w3.org/2000/svg">
<path d="M26.7138 2.61956C26.8043 2.68097 27.5929 4.50714 27.6058 4.61704C27.664 5.09539 26.2386 11.9314 26.0156 12.9301C25.8411 13.7026 24.7422 14.6755 24.5676 15.8229C24.2703 17.7913 25.2011 19.4074 25.13 21.3305C25.0945 22.2775 23.0226 28.493 22.6768 28.6708C20.8959 29.6016 20.3917 21.5762 20.1687 21.1075C19.6838 20.0861 16.6844 18.9323 16.0929 17.4293C15.7891 16.6568 15.4012 11.9767 14.9261 11.6147C14.5512 11.3302 10.4657 13.9515 10.1166 14.4008C8.82701 16.0653 10.5013 15.4706 11.3804 16.5599C11.9008 17.2063 12.2175 18.5218 12.5731 18.7771C14.2861 20.015 16.1479 19.2167 18.5009 22.465C20.3626 25.0378 21.2094 33.0859 24.8068 28.1536C29.4805 21.7475 26.2968 16.1849 28.5787 11.6114C28.8567 11.0555 29.1088 11.0135 29.5096 10.6806C38.5435 11.1428 35.4955 16.6956 35.5311 22.2582C35.5505 25.3028 36.8337 28.2506 36.9112 31.2856C36.2098 32.1776 26.6524 39.2593 27.9614 40.4487C29.4837 41.8321 38.3916 32.0322 39.5681 30.5034C40.3309 29.5111 40.4278 27.7819 41.1163 27.0902C42.0471 26.1497 43.3982 26.5343 44.426 25.7457C46.0485 24.5045 45.4635 20.9297 48.7442 21.8444C48.2755 27.9015 49.5522 29.7374 46.152 35.8429C41.753 43.7391 34.9881 49.0592 25.7926 48.2059C25.9413 45.2808 27.8515 45.2679 27.6479 41.8547C27.6188 41.3764 24.4577 33.3121 24.2121 32.8855C23.4752 31.6217 20.0167 29.802 19.2733 28.8291C17.9902 27.1484 18.0387 24.3267 15.5661 22.6105C14.1633 21.6376 12.7605 21.7927 11.9687 21.2433C11.4063 20.8554 10.5174 18.5864 9.36032 17.6491C8.07392 16.6083 4.18564 15.5805 3.77192 13.7802C3.46163 12.4324 6.38997 8.20796 7.4081 7.6488C9.41527 6.54663 12.46 7.42901 14.2409 6.72763C15.1782 6.35917 16.5422 3.60537 17.6443 3.30155C18.7465 2.99772 19.7291 3.67648 20.5953 3.49224C22.1467 3.1658 24.7098 1.28791 26.7235 2.61633L26.7138 2.61956Z" fill="#DC892C"/>
<path d="M24.5416 48.2059C18.4296 47.3623 9.38276 43.8942 6.55139 37.9729C4.90299 34.5242 4.08202 24.5562 4.69936 20.7681C5.51063 15.7744 9.98717 22.0772 11.2186 22.9207C12.6149 23.8742 14.4702 23.9292 15.5659 24.776C16.7779 25.7101 17.4858 28.4607 18.4748 29.621C19.4639 30.7814 21.9882 31.8092 22.8091 33.3509C23.4523 34.5565 23.3521 36.15 23.9533 37.4784C25.1234 40.0544 27.2566 39.7571 26.2708 43.8942C25.9346 45.3067 24.1052 46.341 24.5416 48.2124V48.2059Z" fill="#DD892D"/>
<path d="M33.5368 1.37836C34.5872 2.12499 34.9072 3.9964 36.0417 4.61051C37.4089 5.35068 40.0851 4.83353 40.8964 5.79995C41.4717 6.48517 41.5105 9.11291 41.9081 10.0632C42.4866 11.4433 45.0788 14.8855 44.9657 15.7227C44.8203 16.8087 41.7626 18.8546 40.9158 20.3899C40.2791 21.5438 40.5506 22.675 40.2888 23.1728C39.4646 24.7533 37.8129 26.35 37.5608 28.3572C36.3261 26.6668 36.0029 22.856 36.8174 20.9458C37.0986 20.2865 38.7373 19.278 38.7438 18.2276C38.7438 17.6587 37.9648 17.1868 37.884 16.395C37.7095 14.7142 38.3818 13.0723 36.7657 11.3302C35.0268 9.45875 31.5587 8.99009 29.5031 10.6837C29.1023 11.0134 28.8502 11.0587 28.5722 11.6146C26.1513 11.4562 28.8372 6.79869 29.1766 5.86136C29.3964 5.25048 28.9956 4.16124 29.2477 3.4534C29.6517 2.32215 32.5736 1.90843 33.5368 1.38159V1.37836Z" fill="#DC892C"/>
<path d="M29.5064 10.6805C31.5621 8.98686 35.0334 9.4523 36.7691 11.3269C38.3851 13.0658 37.7129 14.711 37.8874 16.3917C37.9682 17.1868 38.7504 17.6587 38.7471 18.2244C38.7407 19.2748 37.102 20.2833 36.8208 20.9426C36.0063 22.8561 36.3295 26.6635 37.5642 28.3539C37.8163 26.3468 39.4647 24.7533 40.2921 23.1696C40.5539 22.6686 40.2824 21.5373 40.9192 20.3867C41.766 18.8514 44.8204 16.8055 44.969 15.7194C45.0822 14.8856 42.49 11.4401 41.9114 10.0599C42.9263 11.6599 47.2219 12.4517 47.6582 13.7963C48.0008 14.8565 47.0538 15.5094 47.238 16.3497C47.4319 17.2418 49.8722 18.011 49.9918 19.2231C50.1114 20.4352 48.8896 19.8792 48.7377 21.8412C45.4571 20.9265 46.0421 24.5012 44.4196 25.7424C43.3918 26.5278 42.0407 26.1464 41.1099 27.0869C40.4246 27.7819 40.3244 29.5078 39.5616 30.5001C38.3851 32.0289 29.4773 41.8288 27.955 40.4455C26.6459 39.256 36.2067 32.1744 36.9048 31.2823C36.8272 28.2473 35.5441 25.2996 35.5247 22.2549C35.4891 16.6923 38.5371 11.1395 29.5032 10.6773L29.5064 10.6805Z" fill="#D27614"/>
<path d="M25.7829 48.2059C25.3789 48.1671 24.9426 48.2609 24.5418 48.2059C24.1054 46.3345 25.9348 45.3002 26.271 43.8878C27.26 39.7506 25.1236 40.0512 23.9535 37.4719C23.3523 36.1435 23.4525 34.5501 22.8093 33.3445C21.9851 31.806 19.4737 30.7846 18.475 29.6146C17.4763 28.4445 16.7781 25.7036 15.5661 24.7696C14.4671 23.9227 12.6151 23.8678 11.2188 22.9143C9.98736 22.0707 5.51083 15.7712 4.69956 20.7617C4.08545 24.5498 4.90318 34.5177 6.55158 37.9665C3.98848 38.3705 0.921165 32.3296 0.766021 30.6424C0.633503 29.2105 1.59345 27.2906 1.26701 25.7263C1.06338 24.7243 0 24.7728 0 23.2407C0 21.8218 1.10863 21.6085 1.27347 20.4191C1.61608 17.9303 -1.14418 15.0149 3.76223 13.7834C4.17918 15.587 8.06423 16.6116 9.35063 17.6523C10.511 18.5897 11.3966 20.8586 11.959 21.2465C12.7509 21.7927 14.1536 21.6408 15.5564 22.6137C18.029 24.33 17.9805 27.1484 19.2637 28.8324C20.0071 29.8053 23.4655 31.625 24.2024 32.8887C24.448 33.3121 27.6091 41.3764 27.6382 41.858C27.8418 45.2711 25.9316 45.2841 25.7829 48.2092V48.2059Z" fill="#D07514"/>
<path d="M33.5368 1.37839C32.5769 1.90524 29.655 2.31572 29.2477 3.45021C28.9956 4.15805 29.3964 5.25052 29.1766 5.85816C28.8373 6.79549 26.1513 11.453 28.5722 11.6114C26.2903 16.1849 29.474 21.7475 24.8003 28.1536C21.2029 33.0859 20.3561 25.0378 18.4944 22.465C16.1446 19.2167 14.2796 20.0118 12.5666 18.7771C12.2111 18.5218 11.8943 17.203 11.3739 16.5598C10.4948 15.4706 8.82375 16.0653 10.1101 14.4008C10.456 13.9515 14.5447 11.3302 14.9196 11.6146C15.3947 11.9734 15.7826 16.6568 16.0864 17.4293C16.6811 18.9322 19.6773 20.0861 20.1622 21.1075C20.3852 21.5761 20.8894 29.6016 22.6703 28.6707C23.0129 28.493 25.088 22.2775 25.1235 21.3305C25.1946 19.4106 24.2638 17.7945 24.5611 15.8229C24.7357 14.6755 25.8346 13.7026 26.0091 12.9301C26.2354 11.9346 27.6575 5.09861 27.5993 4.61702C27.5864 4.50712 26.801 2.68095 26.7073 2.61954C28.3524 1.721 32.0403 0.321479 33.5304 1.37839H33.5368Z" fill="#D27614"/>
</svg>
