<svg width="194" height="219" viewBox="0 0 194 219" fill="none" xmlns="http://www.w3.org/2000/svg">
<path d="M95.2576 86.8362L83.2565 69.6696L51.6623 89.4682C49.3889 93.4854 47.8875 98.5043 47.676 103.14C47.3165 111.366 52.2967 130.078 48.7333 136.12C43.806 144.463 19.6874 142.343 12.0743 138.453C10.3508 137.569 5.83585 134.074 4.79963 132.497C-1.56574 122.746 0.633594 90.1821 0.665315 77.3631C0.675888 72.163 -1.47057 71.3212 1.89186 65.3966C7.3056 55.8702 36.3198 41.9963 46.9887 36.1995C53.28 32.779 58.4823 28.5379 66.1165 26.8223C65.3975 21.6329 55.3631 3.78437 61.4958 0.726138C67.6285 -2.33209 76.6902 5.1057 82.1251 7.55655C94.4434 13.1189 116.479 20.301 126.387 28.3994C132.35 33.2691 129.897 36.2954 127.317 42.5078C123.532 51.6399 115.919 64.8212 111.097 74.2196C108.644 79.0041 101.686 93.5281 95.2576 86.8468V86.8362Z" fill="#F8F3EE"/>
<path d="M185.96 82.3616C186.922 83.2781 188.233 85.8141 188.836 87.1248C195.18 100.956 195.37 140.724 188.825 154.576C185.579 161.449 178.526 166.65 172.245 170.592C165.965 174.535 130.268 189.272 128.936 191.392C126.895 194.653 136.073 211.575 130.458 216.412C127.075 219.332 120.36 217.734 116.607 216.125C107.164 212.107 83.4792 195.943 74.1532 189.379C64.6369 182.687 66.1066 182.505 70.4524 172.308C74.7982 162.11 81.2376 147.544 86.313 138.188C99.2023 114.457 104.87 149.781 106.625 149.44C114.915 143.91 143.094 131.197 144.648 121.309C146.107 111.996 138.917 86.6879 144.733 81.5198C149.152 77.5985 181.022 77.6518 185.96 82.3616Z" fill="#F8F3EE"/>
</svg>
