<svg width="50" height="50" viewBox="0 0 50 50" fill="none" xmlns="http://www.w3.org/2000/svg">
<path d="M26.0726 33.7187C25.3703 32.8083 25.7655 28.6933 25.613 28.5075C25.1771 27.9791 13.7634 29.0177 13.2996 28.4474C12.7477 27.7724 13.0311 23.0949 13.5616 22.2368C14.704 20.3873 24.316 22.2028 24.7841 21.7241C25.1835 21.316 24.3911 16.0943 25.6774 16.0001C26.0296 15.974 31.2565 19.422 31.9351 19.9269C33.2515 20.9053 37.8921 24.0027 36.8484 25.7554C35.7468 27.605 28.5894 31.4114 27.0411 33.9071C26.7662 34.1007 26.2701 33.9699 26.0747 33.7161L26.0726 33.7187Z" fill="#F3EEE9"/>
</svg>
