<svg width="140" height="140" viewBox="0 0 140 140" fill="none" xmlns="http://www.w3.org/2000/svg">
<path d="M88.6293 27.977C90.7048 29.124 101.237 26.1836 102.721 24.718C105.652 21.805 110.805 2.15118 121.892 16.1337C133.089 30.2528 110.595 40.0933 114.683 43.862C116.667 45.6918 139.116 43.5616 139.98 59.2737C140.636 71.1625 124.614 73.7478 124.314 74.8766C124.041 75.8962 136.603 82.5961 133.508 92.819C131.469 99.5554 120.582 98.2445 119.953 100.193C119.462 101.722 128.055 112.154 118.561 124.161C107.254 138.444 96.4945 122.942 93.3174 123.315C92.2342 123.442 88.2743 135.367 75.9212 134.657C72.5895 134.466 66.1171 130.251 64.433 130.361C60.8554 130.597 61.2105 137.124 51.9434 134.976C44.3058 133.21 44.8247 124.353 43.8507 123.424C43.4592 123.042 36.7684 122.951 33.8189 119.045C32.0256 116.669 31.4885 110.161 30.2596 109.287C25.2073 105.718 13.3641 113.401 7.33773 97.4799C3.30502 86.8291 5.29862 73.2563 14.4746 65.9646C15.7946 64.9177 21.2474 64.3351 21.2019 63.5249C21.1746 62.9696 13.7828 55.9966 13.3185 55.678C10.7605 53.9484 3.66915 55.323 1.23859 48.5411C-1.38313 41.1766 -0.36357 26.0016 9.40416 24.6361C23.5141 22.6516 20.5738 38.6914 31.616 31.1267C37.6696 26.9847 28.6483 16.0062 39.3537 10.0437C59.6902 -1.28983 57.997 15.9607 62.403 19.2743C67.8649 23.3798 71.051 2.2058 80.3818 6.07466C87.4368 9.00589 85.5615 26.2747 88.6384 27.9678L88.6293 27.977ZM76.8862 10.8174C72.4074 11.9462 75.9121 17.2898 79.1164 16.6981C82.7395 16.0245 81.5106 9.65221 76.8862 10.8174ZM59.9178 25.2369C55.3844 21.6775 55.8396 10.0345 46.5816 12.9021C36.122 16.1428 43.8962 34.2673 43.0314 35.123C42.1666 35.9787 28.976 30.808 23.1227 42.7332C15.8128 57.6261 30.9787 58.9915 29.7862 67.6942C28.6028 76.3149 10.8334 66.2559 12.4355 88.0125C14.2198 112.218 36.4042 101.003 38.7074 102.751C41.2654 104.699 32.8904 116.815 44.5789 118.79C52.5624 120.138 61.3197 108.795 66.4812 112.127C68.4657 113.41 64.0324 128.74 74.2826 130.169C84.7422 131.626 85.689 116.679 90.6229 116.387C95.0926 116.123 106.189 135.886 116.267 120.138C124.933 106.601 105.525 98.6269 109.43 94.5213C110.122 93.8022 121.965 100.356 126.38 91.8086C130.795 83.2607 117.004 76.324 118.278 71.5449C119.744 66.0283 138.333 70.671 133.417 57.8536C130.286 49.6699 112.616 49.3786 111.169 47.7855C108.492 44.8543 113.508 35.2231 103.959 32.2919C96.5035 30.007 87.6006 35.7966 84.7149 34.9773C80.136 33.6665 85.2065 23.7713 77.5143 22.0417C68.0743 19.9206 66.7998 30.626 59.9087 25.2187L59.9178 25.2369ZM116.239 16.9348C108.811 17.5629 106.945 30.5532 113.426 31.6546C121.838 33.0929 125.761 16.1246 116.239 16.9348ZM10.4783 29.1604C3.96045 31.1904 6.0906 49.1601 13.5825 48.0768C21.5569 46.9207 19.3813 26.3839 10.4783 29.1604ZM51.1241 129.241C56.932 135.031 69.9586 117.17 58.3612 117.161C53.3089 117.161 47.5921 125.718 51.1241 129.241Z" fill="#F1F4F2"/>
<path d="M59.918 25.2369C66.8092 30.6442 68.0836 19.9388 77.5236 22.0599C85.2158 23.7895 80.1362 33.6846 84.7242 34.9955C87.61 35.8239 96.5129 30.0252 103.968 32.3101C113.518 35.2322 108.502 44.8725 111.178 47.8037C112.626 49.3877 130.295 49.679 133.426 57.8718C138.333 70.6891 119.753 66.0465 118.288 71.563C117.013 76.3422 130.987 82.9329 126.39 91.8268C121.792 100.721 110.131 93.8204 109.439 94.5395C105.534 98.6451 124.942 106.619 116.276 120.156C106.199 135.904 95.1019 116.141 90.6322 116.405C85.6983 116.697 84.7425 131.635 74.292 130.188C64.0418 128.768 68.475 113.438 66.4905 112.145C61.329 108.804 52.5718 120.156 44.5883 118.809C32.8997 116.833 41.2656 104.717 38.7167 102.769C36.4136 101.012 14.2291 112.236 12.4449 88.0307C10.8427 66.265 28.6121 76.324 29.7956 67.7124C30.9881 59.0188 15.8221 57.6443 23.132 42.7514C28.9854 30.8262 42.2214 35.9604 43.0407 35.1411C43.8964 34.2854 36.1314 16.1701 46.591 12.9202C55.8398 10.0527 55.3937 21.6957 59.9271 25.2551L59.918 25.2369Z" fill="#11601B"/>
<path d="M10.4785 29.1604C19.3815 26.384 21.548 46.9299 13.5827 48.0769C6.09079 49.1602 3.96064 31.1905 10.4785 29.1604Z" fill="#11601B"/>
<path d="M116.239 16.9349C125.761 16.1247 121.838 33.093 113.426 31.6547C106.945 30.5533 108.811 17.563 116.239 16.9349Z" fill="#11601B"/>
<path d="M51.1242 129.241C47.6013 125.727 53.309 117.161 58.3612 117.161C69.9587 117.161 56.932 135.021 51.1242 129.241Z" fill="#11601B"/>
<path d="M76.8864 10.8173C81.5108 9.65214 82.7306 16.0244 79.1166 16.698C75.9123 17.2988 72.4167 11.9461 76.8864 10.8173Z" fill="#11601B"/>
</svg>
