<svg width="50" height="50" viewBox="0 0 50 50" fill="none" xmlns="http://www.w3.org/2000/svg">
    <path d="M43.7921 7.94835C51.624 16.4391 52.0668 31.123 44.932 40.126C27.0901 62.6362 -7.9373 43.3062 1.60961 15.942C7.6604 -1.39453 31.487 -5.39138 43.7921 7.94835ZM24.8 4.00223C17.9452 4.73262 8.51026 8.49107 5.78257 15.2319C1.92513 24.7676 5.17189 38.1073 14.3371 43.3823C33.8126 54.5968 54.5858 33.4359 43.0898 14.2429C39.5174 8.27804 32.0264 3.23126 24.8051 4.00223H24.8Z" fill="#E6F2E7"/>
    <path d="M24.8001 4.00194C32.0213 3.23098 39.5123 8.27776 43.0847 14.2426C54.5807 33.4356 33.8075 54.5915 14.332 43.382C5.1719 38.107 1.92514 24.7622 5.78258 15.2317C8.51027 8.49079 17.9452 4.73233 24.8001 4.00194Z" fill="#FD6AAF"/>
</svg>
