<svg width="50" height="50" viewBox="0 0 50 50" fill="none" xmlns="http://www.w3.org/2000/svg">
    <path d="M43.8019 7.94835C51.6338 16.4391 52.0765 31.123 44.9418 40.126C27.0999 62.6362 -7.92753 43.3062 1.61938 15.942C7.67016 -1.39453 31.4967 -5.39138 43.8019 7.94835ZM24.8098 4.00223C17.955 4.73262 8.52002 8.49107 5.79233 15.2319C1.93489 24.7676 5.18166 38.1073 14.3469 43.3823C33.8224 54.5968 54.5956 33.4359 43.0996 14.2429C39.5271 8.27804 32.0362 3.23126 24.8149 4.00223H24.8098Z" fill="#E6F2E7"/>
    <path d="M24.8098 4.00194C32.0311 3.23098 39.522 8.27776 43.0945 14.2426C54.5905 33.4356 33.8173 54.5915 14.3418 43.382C5.18167 38.107 1.9349 24.7622 5.79234 15.2317C8.52003 8.49079 17.955 4.73233 24.8098 4.00194Z" fill="#EDBE3C"/>
</svg>
