<svg width="1219" height="107" viewBox="0 0 1219 107" fill="none" xmlns="http://www.w3.org/2000/svg">
<path d="M615.428 12.7384C616.431 13.9033 628.208 13.9149 628.761 14.2839C630.803 15.668 631.645 25.8066 632.556 27.1445C633.467 28.4825 640.619 30.2703 642.095 33.1654C644.067 37.0293 639.696 40.5703 644.759 41.493C833.562 47.1217 1022.58 44.1459 1211.52 44.7572C1215.11 44.538 1221.79 54.0076 1215.87 54.7688C1024.53 64.3652 833.723 72.0603 642.095 76.1549C638.577 82.3603 632.714 88.3404 627.143 93.0118C606.15 110.636 583.721 107.134 563.028 94.4233C555.162 89.5904 555.058 83.0737 542.913 81.3435C492.162 74.1116 413.004 77.0413 359.22 75.761C239.518 72.9236 119.655 74.077 0 70.2592L1.10728 56.9719L539.902 38.9901C548.553 36.0143 550.791 20.5355 554.539 18.7361C555.347 18.344 566.696 18.2402 570.872 16.3024C574.216 14.7568 574.805 10.5007 577.469 9.61261C582.36 7.9863 598.207 9.19738 604.805 8.00937C606.731 7.66334 607.677 4.06468 610.422 3.90321C617.239 3.51105 614.897 12.0694 615.44 12.7038L615.428 12.7384Z" fill="white" fill-opacity="0.23"/>
<path d="M626.664 12.1988C627.219 12.6551 627.231 21.209 631.82 25.6322C634.634 28.347 639.767 28.6044 640.145 29.1895C641.505 31.3192 638.348 38.5274 645.905 40.8092C642.688 52.9086 644.994 61.1817 639.365 73.5854C620.348 115.489 582.263 112.835 553.998 85.2429C549.374 80.7261 543.478 81.051 540.368 66.6814C539.918 64.6102 538.937 36.8072 539.256 35.2041C540.131 30.8628 545.394 31.9043 545.938 31.1437C546.695 30.0905 545.335 26.2407 546.671 24.5674C557.847 10.5722 558.072 19.9686 567.946 15.2997C571.731 13.5093 573.233 7.71705 576.272 6.87453C578.838 6.16073 592.829 6.83943 596.377 6.48838C601.722 5.96181 607.399 2.18219 608.014 2.13538C610.793 1.92475 612.33 9.5542 616.741 11.3445C619.769 12.5615 626.273 11.8828 626.664 12.1988Z" fill="white" fill-opacity="0.5"/>
<g clip-path="url(#clip0_1299_55)">
<g clip-path="url(#clip1_1299_55)">
<path d="M598.289 106.204C596.855 106.204 595.407 106.135 593.938 106.002C593.658 105.974 593.309 106.002 592.938 106.016C592.406 106.044 591.805 106.079 591.175 105.995C576.508 103.973 558.077 96.2389 551.418 83.9514C550.111 83.8259 548.768 83.2331 547.404 82.1731C542.584 78.4353 538.514 69.6834 538.227 66.5522C538.073 64.8995 538.465 63.1142 538.835 61.3917C539.234 59.5507 539.654 57.6399 539.339 56.1406C539.262 55.7571 539.059 55.5479 538.577 55.0667C537.779 54.2508 536.555 53.0373 536.555 50.4013C536.555 48.1209 537.597 46.8099 538.36 45.8545C538.933 45.1362 539.234 44.7318 539.332 44.0693C539.507 42.807 539.199 41.3705 538.87 39.8502C538.066 36.1333 536.982 31.1193 544.739 28.6645C545.48 24.055 551.279 16.4398 553.482 15.2333C556.294 13.6922 559.763 13.7131 562.799 13.6992C564.988 13.6992 567.065 13.6992 568.464 13.1552C568.982 12.9321 570.234 11.3002 570.989 10.3239C572.619 8.20394 574.165 6.20948 576.011 5.70738C577.809 5.21923 579.362 5.57488 580.614 5.8608C581.376 6.03514 582.033 6.18856 582.502 6.09093C583.271 5.93054 584.3 5.50515 585.398 5.05884C588.419 3.81753 592.476 2.15084 596.169 3.93608C598.953 2.5832 607.626 -1.21045 611.907 1.8161C613.306 2.80636 614.138 4.31266 614.943 5.76317C615.642 7.0254 616.306 8.22486 617.146 8.67815C618.174 9.22906 619.916 9.38248 621.608 9.52195C624.133 9.73814 626.735 9.96129 628.162 11.6559C629.127 12.8065 629.47 14.7243 629.925 17.7578C630.114 19.02 630.323 20.4357 630.575 21.1609C631.485 22.4022 634.205 23.6226 636.402 24.6129C639.619 26.0634 642.396 27.3117 643.109 29.5014C643.718 31.3773 643.081 32.8417 642.62 33.9087C642.396 34.4108 642.207 34.8571 642.235 35.1291C642.452 35.4847 643.473 36.1961 644.152 36.6633C645.963 37.9185 648.013 39.3342 648.229 41.5727C648.432 43.6718 647.313 44.5923 646.635 45.1432C646.054 45.6174 645.641 45.9591 645.516 47.5282C645.243 51.022 645.25 53.8812 645.25 56.4126C645.257 63.4071 645.264 68.463 639.682 78.4492C629.491 96.6852 615.243 106.211 598.289 106.211V106.204ZM593.63 102.501C593.833 102.501 594.05 102.508 594.267 102.529C616.237 104.572 629.435 89.6349 636.64 76.7477C641.773 67.5564 641.766 63.1212 641.759 56.4126C641.759 53.8184 641.752 50.8825 642.032 47.2562C642.27 44.2087 643.613 43.1069 644.417 42.4514C644.543 42.3468 644.711 42.2143 644.76 42.1446C644.76 42.1376 644.76 42.0609 644.746 41.9074C644.683 41.2728 643.102 40.178 642.151 39.5225C640.612 38.4555 639.158 37.4443 638.822 35.9101C638.521 34.5363 639.011 33.4136 639.409 32.507C639.787 31.6423 639.976 31.1611 639.78 30.5614C639.514 29.8222 636.66 28.546 634.961 27.7789C631.988 26.44 628.911 25.0592 627.533 22.8974C627.477 22.8137 627.435 22.73 627.393 22.6393C626.945 21.5724 626.707 19.9615 626.456 18.2599C626.246 16.8233 625.882 14.4174 625.476 13.8874C624.987 13.3086 622.86 13.1203 621.301 12.9878C619.258 12.8135 617.139 12.6322 615.474 11.7326C613.726 10.7912 612.739 9.00591 611.872 7.43684C611.228 6.27225 610.62 5.17739 609.872 4.64739C607.871 3.23175 601.457 4.98213 596.953 7.42987C596.386 7.73671 595.694 7.70881 595.155 7.35316C592.77 5.78409 589.56 7.10211 586.72 8.2667C585.475 8.77578 584.3 9.26393 583.216 9.48709C581.998 9.74511 580.837 9.48011 579.823 9.24301C578.781 9.00591 577.879 8.7967 576.934 9.05472C576.221 9.24998 574.682 11.2444 573.766 12.4369C572.36 14.264 571.143 15.8401 569.751 16.384C567.73 17.179 565.331 17.165 562.799 17.172C560.05 17.172 557.189 17.172 555.168 18.2738C553.293 19.299 547.795 27.7092 548.159 29.5851C548.334 30.4916 547.781 31.44 546.879 31.6632C541.004 33.1346 541.458 35.2546 542.291 39.0971C542.668 40.8475 543.06 42.6536 542.801 44.5295C542.57 46.1683 541.759 47.1865 541.102 48.0094C540.451 48.8253 540.059 49.3134 540.059 50.3734C540.059 51.5659 540.416 51.9216 541.06 52.5631C541.661 53.1559 542.48 53.9788 542.773 55.4014C543.235 57.619 542.717 59.997 542.263 62.0961C541.927 63.6303 541.612 65.0808 541.717 66.2035C541.92 68.4212 545.508 76.2525 549.565 79.3976C550.278 79.9555 551.328 80.5832 552.223 80.4437C552.992 80.3251 553.741 80.7157 554.076 81.413C560.071 93.9237 579.844 100.89 591.672 102.515C591.966 102.557 592.35 102.536 592.756 102.515C593.036 102.501 593.33 102.48 593.644 102.48L593.63 102.501Z" fill="white"/>
</g>
</g>
<defs>
<clipPath id="clip0_1299_55">
<rect width="111.988" height="106.125" fill="white" transform="translate(536.555 0.37207)"/>
</clipPath>
<clipPath id="clip1_1299_55">
<rect width="111.695" height="105.539" fill="white" transform="translate(536.555 0.665283)"/>
</clipPath>
</defs>
</svg>
