<svg width="428" height="80" viewBox="0 0 428 80" fill="none" xmlns="http://www.w3.org/2000/svg">
<rect width="76.9439" height="80" rx="38.472" fill="#A0B86D"/>
<path d="M27.4493 60.3752C31.7705 60.3752 35.2736 56.8721 35.2736 52.5509C35.2736 48.2296 31.7705 44.7266 27.4493 44.7266C23.1281 44.7266 19.625 48.2296 19.625 52.5509C19.625 56.8721 23.1281 60.3752 27.4493 60.3752Z" fill="white"/>
<path d="M57.3201 50.7008H48.7594C36.489 50.7008 26.5107 40.7225 26.5107 28.4522V19.6245H42.1593V28.443C42.1593 32.0882 45.1234 35.043 48.7594 35.043H57.3201V50.6916V50.7008Z" fill="white"/>
<path d="M139.222 26.22V60H130.102V26.22H118.762V18.12H150.562V26.22H139.222ZM172.077 60.72C169.317 60.72 166.797 60.26 164.517 59.34C162.237 58.42 160.297 57.06 158.697 55.26C157.097 53.42 155.857 51.16 154.977 48.48C154.097 45.76 153.657 42.62 153.657 39.06C153.657 35.5 154.097 32.38 154.977 29.7C155.857 26.98 157.097 24.72 158.697 22.92C160.297 21.08 162.237 19.7 164.517 18.78C166.797 17.86 169.317 17.4 172.077 17.4C174.837 17.4 177.357 17.86 179.637 18.78C181.917 19.7 183.857 21.08 185.457 22.92C187.057 24.72 188.297 26.98 189.177 29.7C190.057 32.38 190.497 35.5 190.497 39.06C190.497 42.62 190.057 45.76 189.177 48.48C188.297 51.16 187.057 53.42 185.457 55.26C183.857 57.06 181.917 58.42 179.637 59.34C177.357 60.26 174.837 60.72 172.077 60.72ZM172.077 52.62C174.837 52.62 176.977 51.72 178.497 49.92C180.057 48.12 180.837 45.54 180.837 42.18V35.94C180.837 32.58 180.057 30 178.497 28.2C176.977 26.4 174.837 25.5 172.077 25.5C169.317 25.5 167.157 26.4 165.597 28.2C164.077 30 163.317 32.58 163.317 35.94V42.18C163.317 45.54 164.077 48.12 165.597 49.92C167.157 51.72 169.317 52.62 172.077 52.62ZM198.109 60V18.12H217.909C219.869 18.12 221.629 18.46 223.189 19.14C224.749 19.78 226.069 20.68 227.149 21.84C228.269 23 229.129 24.42 229.729 26.1C230.329 27.74 230.629 29.54 230.629 31.5C230.629 33.5 230.329 35.32 229.729 36.96C229.129 38.6 228.269 40 227.149 41.16C226.069 42.32 224.749 43.24 223.189 43.92C221.629 44.56 219.869 44.88 217.909 44.88H207.229V60H198.109ZM207.229 36.96H216.829C218.189 36.96 219.249 36.62 220.009 35.94C220.809 35.22 221.209 34.18 221.209 32.82V30.18C221.209 28.82 220.809 27.8 220.009 27.12C219.249 26.4 218.189 26.04 216.829 26.04H207.229V36.96ZM250.458 60.72C246.778 60.72 243.658 60.1 241.098 58.86C238.538 57.58 236.358 55.94 234.558 53.94L240.558 47.88C243.398 51.08 246.898 52.68 251.058 52.68C253.298 52.68 254.958 52.22 256.038 51.3C257.118 50.38 257.658 49.16 257.658 47.64C257.658 46.48 257.338 45.52 256.698 44.76C256.058 43.96 254.758 43.42 252.798 43.14L248.658 42.6C244.218 42.04 240.958 40.7 238.878 38.58C236.838 36.46 235.818 33.64 235.818 30.12C235.818 28.24 236.178 26.52 236.898 24.96C237.618 23.4 238.638 22.06 239.958 20.94C241.318 19.82 242.958 18.96 244.878 18.36C246.838 17.72 249.058 17.4 251.538 17.4C254.698 17.4 257.478 17.9 259.878 18.9C262.278 19.9 264.338 21.36 266.058 23.28L259.998 29.4C258.998 28.24 257.778 27.3 256.338 26.58C254.938 25.82 253.158 25.44 250.998 25.44C248.958 25.44 247.438 25.8 246.438 26.52C245.438 27.24 244.938 28.24 244.938 29.52C244.938 30.96 245.318 32 246.078 32.64C246.878 33.28 248.158 33.74 249.918 34.02L254.058 34.68C258.378 35.36 261.578 36.7 263.658 38.7C265.738 40.66 266.778 43.46 266.778 47.1C266.778 49.1 266.418 50.94 265.698 52.62C264.978 54.3 263.918 55.74 262.518 56.94C261.158 58.14 259.458 59.08 257.418 59.76C255.378 60.4 253.058 60.72 250.458 60.72ZM291.26 60.72C288.42 60.72 285.86 60.28 283.58 59.4C281.3 58.48 279.36 57.14 277.76 55.38C276.16 53.58 274.92 51.36 274.04 48.72C273.16 46.04 272.72 42.92 272.72 39.36C272.72 35.84 273.16 32.72 274.04 30C274.92 27.24 276.16 24.94 277.76 23.1C279.36 21.22 281.3 19.8 283.58 18.84C285.86 17.88 288.42 17.4 291.26 17.4C295.14 17.4 298.34 18.2 300.86 19.8C303.38 21.36 305.4 23.84 306.92 27.24L299.06 31.32C298.5 29.56 297.62 28.16 296.42 27.12C295.26 26.04 293.54 25.5 291.26 25.5C288.58 25.5 286.42 26.38 284.78 28.14C283.18 29.86 282.38 32.38 282.38 35.7V42.42C282.38 45.74 283.18 48.28 284.78 50.04C286.42 51.76 288.58 52.62 291.26 52.62C293.5 52.62 295.28 52.02 296.6 50.82C297.96 49.58 298.96 48.1 299.6 46.38L307.04 50.7C305.48 53.9 303.42 56.38 300.86 58.14C298.34 59.86 295.14 60.72 291.26 60.72ZM329.46 60.72C326.7 60.72 324.18 60.26 321.9 59.34C319.62 58.42 317.68 57.06 316.08 55.26C314.48 53.42 313.24 51.16 312.36 48.48C311.48 45.76 311.04 42.62 311.04 39.06C311.04 35.5 311.48 32.38 312.36 29.7C313.24 26.98 314.48 24.72 316.08 22.92C317.68 21.08 319.62 19.7 321.9 18.78C324.18 17.86 326.7 17.4 329.46 17.4C332.22 17.4 334.74 17.86 337.02 18.78C339.3 19.7 341.24 21.08 342.84 22.92C344.44 24.72 345.68 26.98 346.56 29.7C347.44 32.38 347.88 35.5 347.88 39.06C347.88 42.62 347.44 45.76 346.56 48.48C345.68 51.16 344.44 53.42 342.84 55.26C341.24 57.06 339.3 58.42 337.02 59.34C334.74 60.26 332.22 60.72 329.46 60.72ZM329.46 52.62C332.22 52.62 334.36 51.72 335.88 49.92C337.44 48.12 338.22 45.54 338.22 42.18V35.94C338.22 32.58 337.44 30 335.88 28.2C334.36 26.4 332.22 25.5 329.46 25.5C326.7 25.5 324.54 26.4 322.98 28.2C321.46 30 320.7 32.58 320.7 35.94V42.18C320.7 45.54 321.46 48.12 322.98 49.92C324.54 51.72 326.7 52.62 329.46 52.62ZM364.612 60H355.492V18.12H375.352C377.272 18.12 379.012 18.44 380.572 19.08C382.132 19.72 383.452 20.64 384.532 21.84C385.652 23 386.512 24.4 387.112 26.04C387.712 27.68 388.012 29.5 388.012 31.5C388.012 34.34 387.372 36.82 386.092 38.94C384.852 41.06 382.952 42.6 380.392 43.56L388.612 60H378.472L371.152 44.64H364.612V60ZM374.212 36.96C375.572 36.96 376.632 36.62 377.392 35.94C378.192 35.22 378.592 34.18 378.592 32.82V30.18C378.592 28.82 378.192 27.8 377.392 27.12C376.632 26.4 375.572 26.04 374.212 26.04H364.612V36.96H374.212ZM395.922 60V18.12H424.422V26.22H405.042V34.8H421.662V42.84H405.042V51.9H424.422V60H395.922Z" fill="white"/>
</svg>
