<svg width="278" height="73" viewBox="0 0 278 73" fill="none" xmlns="http://www.w3.org/2000/svg">
<mask id="path-1-outside-1_2152_965" maskUnits="userSpaceOnUse" x="-5" y="-2" width="287" height="77" fill="black">
<rect fill="white" x="-5" y="-2" width="287" height="77"/>
<path d="M12.3446 46.5563C19.8999 51.8154 26.0478 53.2968 31.3068 52.5561C31.7513 51.5191 31.7513 52.8524 31.7513 50.2599C31.7513 40.5566 6.27077 38.4826 6.27077 24.4831C6.27077 19.5203 7.08555 15.9649 11.9002 11.2244L13.5297 9.5948C15.0112 8.11338 16.7889 6.92824 18.8629 5.96531L21.6035 4.7061C30.1217 0.854395 37.8992 2.03954 50.2691 9.0763L43.0101 23.4461L39.6028 22.7054C37.5288 20.9277 35.3808 19.7426 33.3808 19.0759C26.8626 18.4093 25.0849 21.224 24.4923 21.8906C26.4922 27.8904 51.4542 30.1866 51.4542 46.5563C51.4542 48.0378 51.3061 49.5192 50.8616 51.0006L49.8247 54.6301C47.0099 64.4816 37.5288 72.9257 20.3443 69.2221L16.937 68.4814C11.9743 67.3704 6.56705 65.0001 0.937642 61.0743L9.01141 47.4452L12.3446 46.5563ZM102.829 22.5573C101.496 21.8166 100.236 21.2981 97.8662 20.6314C96.5329 20.4092 95.1256 20.2611 93.6441 20.3351C83.5705 20.7055 75.867 25.6683 74.756 31.7421C74.5338 32.7791 74.5338 33.5939 74.5338 34.5568C74.5338 45.149 84.3112 52.5561 94.6811 52.5561C99.3476 52.5561 103.347 51.2969 105.496 50.408L107.273 49.6673L110.236 63.2964L109.199 67C109.199 67 108.236 69.9628 91.5701 69.9628C89.1999 69.9628 86.9037 69.6666 84.6815 69.1481L81.2742 68.4074C66.9044 65.2964 54.979 52.7783 54.979 37.6678C54.979 29.2977 56.9789 23.0758 64.5342 15.6686L66.2378 14.0391C69.1266 11.2244 72.4598 8.92816 76.1633 7.22452L78.904 5.96531C83.126 4.03946 87.8666 2.92839 92.6071 2.92839C107.866 2.92839 108.236 4.63203 110.236 5.96531L106.458 23.372L102.829 22.5573ZM132.669 34.5568C132.669 46.4823 143.705 52.1117 149.631 52.1117C151.483 52.1117 153.335 51.7413 154.964 51.1488C155.853 50.6303 156.816 49.9636 157.557 49.371C161.927 44.4823 162.075 42.7787 162.075 37.5197C162.075 29.8162 157.186 23.2239 150.372 20.9277C149.779 20.8536 149.187 20.7796 148.594 20.7796C140.298 20.7796 136.002 24.0387 132.965 31.5199C132.817 32.631 132.669 33.5198 132.669 34.5568ZM114.373 37.5197C114.373 28.557 116.373 21.9647 124.002 14.5576L125.706 12.928C128.224 10.4096 131.187 8.40966 134.446 6.92824L137.187 5.66902C140.965 3.96539 145.187 2.92839 149.631 2.92839C163.112 2.92839 180.371 14.8539 180.371 34.5568C180.371 37.6678 179.926 40.7047 179.111 43.5194L178.074 47.1489C173.778 62.2594 163.26 69.9628 148.594 69.9628C146.372 69.9628 144.298 69.6666 142.224 69.2221L138.817 68.4814C124.743 65.4445 114.373 52.482 114.373 37.5197ZM189.568 4.11353H211.938C223.122 4.40982 232.678 11.2244 232.678 22.8536C232.678 25.0016 232.381 26.9275 231.937 28.6311L230.9 32.2606C228.974 39.0011 227.048 39.6677 223.048 41.9639L238.307 65.1482L237.27 68.7777H218.456L204.16 46.1119V65.1482L202.456 68.7777H185.124V7.00231L186.753 5.37274L189.568 4.11353ZM203.493 31.3717C206.456 31.2977 209.79 31.0755 212.308 30.3347V30.2607C213.938 27.8904 213.567 29.52 213.567 26.2608C213.567 22.3351 211.419 20.2611 208.086 19.15C206.753 19.0018 204.975 18.8537 203.493 18.8537V31.3717ZM277.634 4.11353V16.2612L276.597 19.8907H256.598V28.4089H276.745V40.7047L275.708 44.3342H256.598V53.0005H277.634V65.1482L276.597 68.7777H238.228V7.00231L239.858 5.37274L242.673 4.11353H277.634Z"/>
</mask>
<path d="M12.3446 46.5563C19.8999 51.8154 26.0478 53.2968 31.3068 52.5561C31.7513 51.5191 31.7513 52.8524 31.7513 50.2599C31.7513 40.5566 6.27077 38.4826 6.27077 24.4831C6.27077 19.5203 7.08555 15.9649 11.9002 11.2244L13.5297 9.5948C15.0112 8.11338 16.7889 6.92824 18.8629 5.96531L21.6035 4.7061C30.1217 0.854395 37.8992 2.03954 50.2691 9.0763L43.0101 23.4461L39.6028 22.7054C37.5288 20.9277 35.3808 19.7426 33.3808 19.0759C26.8626 18.4093 25.0849 21.224 24.4923 21.8906C26.4922 27.8904 51.4542 30.1866 51.4542 46.5563C51.4542 48.0378 51.3061 49.5192 50.8616 51.0006L49.8247 54.6301C47.0099 64.4816 37.5288 72.9257 20.3443 69.2221L16.937 68.4814C11.9743 67.3704 6.56705 65.0001 0.937642 61.0743L9.01141 47.4452L12.3446 46.5563ZM102.829 22.5573C101.496 21.8166 100.236 21.2981 97.8662 20.6314C96.5329 20.4092 95.1256 20.2611 93.6441 20.3351C83.5705 20.7055 75.867 25.6683 74.756 31.7421C74.5338 32.7791 74.5338 33.5939 74.5338 34.5568C74.5338 45.149 84.3112 52.5561 94.6811 52.5561C99.3476 52.5561 103.347 51.2969 105.496 50.408L107.273 49.6673L110.236 63.2964L109.199 67C109.199 67 108.236 69.9628 91.5701 69.9628C89.1999 69.9628 86.9037 69.6666 84.6815 69.1481L81.2742 68.4074C66.9044 65.2964 54.979 52.7783 54.979 37.6678C54.979 29.2977 56.9789 23.0758 64.5342 15.6686L66.2378 14.0391C69.1266 11.2244 72.4598 8.92816 76.1633 7.22452L78.904 5.96531C83.126 4.03946 87.8666 2.92839 92.6071 2.92839C107.866 2.92839 108.236 4.63203 110.236 5.96531L106.458 23.372L102.829 22.5573ZM132.669 34.5568C132.669 46.4823 143.705 52.1117 149.631 52.1117C151.483 52.1117 153.335 51.7413 154.964 51.1488C155.853 50.6303 156.816 49.9636 157.557 49.371C161.927 44.4823 162.075 42.7787 162.075 37.5197C162.075 29.8162 157.186 23.2239 150.372 20.9277C149.779 20.8536 149.187 20.7796 148.594 20.7796C140.298 20.7796 136.002 24.0387 132.965 31.5199C132.817 32.631 132.669 33.5198 132.669 34.5568ZM114.373 37.5197C114.373 28.557 116.373 21.9647 124.002 14.5576L125.706 12.928C128.224 10.4096 131.187 8.40966 134.446 6.92824L137.187 5.66902C140.965 3.96539 145.187 2.92839 149.631 2.92839C163.112 2.92839 180.371 14.8539 180.371 34.5568C180.371 37.6678 179.926 40.7047 179.111 43.5194L178.074 47.1489C173.778 62.2594 163.26 69.9628 148.594 69.9628C146.372 69.9628 144.298 69.6666 142.224 69.2221L138.817 68.4814C124.743 65.4445 114.373 52.482 114.373 37.5197ZM189.568 4.11353H211.938C223.122 4.40982 232.678 11.2244 232.678 22.8536C232.678 25.0016 232.381 26.9275 231.937 28.6311L230.9 32.2606C228.974 39.0011 227.048 39.6677 223.048 41.9639L238.307 65.1482L237.27 68.7777H218.456L204.16 46.1119V65.1482L202.456 68.7777H185.124V7.00231L186.753 5.37274L189.568 4.11353ZM203.493 31.3717C206.456 31.2977 209.79 31.0755 212.308 30.3347V30.2607C213.938 27.8904 213.567 29.52 213.567 26.2608C213.567 22.3351 211.419 20.2611 208.086 19.15C206.753 19.0018 204.975 18.8537 203.493 18.8537V31.3717ZM277.634 4.11353V16.2612L276.597 19.8907H256.598V28.4089H276.745V40.7047L275.708 44.3342H256.598V53.0005H277.634V65.1482L276.597 68.7777H238.228V7.00231L239.858 5.37274L242.673 4.11353H277.634Z" fill="white"/>
<path d="M12.3446 46.5563L14.6298 43.2734L13.1069 42.2133L11.314 42.6914L12.3446 46.5563ZM31.3068 52.5561L31.8647 56.517L34.0959 56.2028L34.9834 54.1318L31.3068 52.5561ZM11.9002 11.2244L14.7066 14.0746L14.7176 14.0638L14.7286 14.0528L11.9002 11.2244ZM13.5297 9.5948L10.7013 6.76637L10.7013 6.76638L13.5297 9.5948ZM18.8629 5.96531L17.1929 2.3306L17.1856 2.33392L17.1784 2.33728L18.8629 5.96531ZM21.6035 4.7061L19.9555 1.06139L19.9445 1.06636L19.9335 1.07139L21.6035 4.7061ZM50.2691 9.0763L53.8394 10.8799L55.5559 7.48186L52.2469 5.59949L50.2691 9.0763ZM43.0101 23.4461L42.1604 27.3548L45.1849 28.0123L46.5804 25.2497L43.0101 23.4461ZM39.6028 22.7054L36.9997 25.7424L37.7663 26.3996L38.7531 26.6141L39.6028 22.7054ZM33.3808 19.0759L34.6457 15.2812L34.227 15.1416L33.7878 15.0967L33.3808 19.0759ZM24.4923 21.8906L21.5027 19.2332L19.9663 20.9616L20.6976 23.1555L24.4923 21.8906ZM50.8616 51.0006L47.0303 49.8512L47.0228 49.8764L47.0156 49.9017L50.8616 51.0006ZM49.8246 54.6301L45.9786 53.5312L49.8246 54.6301ZM20.3443 69.2221L19.4946 73.1309L19.5016 73.1324L20.3443 69.2221ZM16.937 68.4814L16.0631 72.3848L16.0752 72.3875L16.0873 72.3901L16.937 68.4814ZM0.937642 61.0743L-2.50383 59.0356L-4.39669 62.2309L-1.35041 64.3553L0.937642 61.0743ZM9.01141 47.4452L7.98075 43.5803L6.40246 44.0011L5.56994 45.4065L9.01141 47.4452ZM10.0594 49.8393C18.1637 55.4806 25.314 57.4397 31.8647 56.517L30.749 48.5952C26.7815 49.154 21.636 48.1502 14.6298 43.2734L10.0594 49.8393ZM34.9834 54.1318C34.9831 54.1325 34.8144 54.5388 34.3656 54.9792C34.2502 55.0925 33.8987 55.3843 34.2035 55.1303C34.4869 54.8941 34.9768 54.4274 35.3276 53.6676C35.6041 53.0683 35.6753 52.5346 35.7007 52.3177C35.7299 52.0686 35.7386 51.8334 35.7429 51.6751C35.7517 51.3502 35.7513 50.8757 35.7513 50.2599H27.7513C27.7513 50.587 27.7513 50.8404 27.7504 51.0441C27.7496 51.2517 27.748 51.3784 27.7458 51.458C27.7448 51.4959 27.744 51.508 27.7443 51.5024C27.7445 51.499 27.747 51.4555 27.755 51.3869C27.7627 51.3213 27.7803 51.1903 27.8198 51.0218C27.8601 50.8499 27.932 50.6008 28.0639 50.3151C28.2038 50.012 28.385 49.7243 28.6041 49.4624C28.8101 49.2161 29.0006 49.0524 29.082 48.9845C29.1199 48.953 29.1502 48.9292 29.1441 48.934C29.1391 48.938 29.1473 48.9315 29.1398 48.9374C29.1373 48.9394 29.1332 48.9427 29.1284 48.9465C29.1188 48.9541 29.1042 48.9658 29.0867 48.9799C29.0113 49.0411 28.895 49.139 28.7619 49.2697C28.1882 49.8328 27.8528 50.4612 27.6303 50.9804L34.9834 54.1318ZM35.7513 50.2599C35.7513 45.8655 32.8171 42.8773 30.158 40.8984C27.4753 38.902 23.9035 37.098 20.9293 35.4725C17.7405 33.7298 14.9942 32.0774 13.0356 30.1796C11.1722 28.374 10.2708 26.5933 10.2708 24.4831H2.27077C2.27077 29.3726 4.55437 33.101 7.46856 35.9248C10.2876 38.6565 13.9114 40.7539 17.0928 42.4926C20.4887 44.3485 23.287 45.7573 25.3819 47.3163C27.5004 48.8928 27.7513 49.8026 27.7513 50.2599H35.7513ZM10.2708 24.4831C10.2708 22.2061 10.4638 20.6402 11.0151 19.2019C11.5604 17.7791 12.5791 16.1694 14.7066 14.0746L9.09377 8.3741C6.40665 11.0199 4.61067 13.5582 3.54491 16.3389C2.48512 19.1041 2.27077 21.7974 2.27077 24.4831H10.2708ZM14.7286 14.0528L16.3582 12.4232L10.7013 6.76638L9.07175 8.39594L14.7286 14.0528ZM16.3582 12.4232C17.4536 11.3278 18.8225 10.3941 20.5473 9.59334L17.1784 2.33728C14.7552 3.46233 12.5688 4.89893 10.7013 6.76637L16.3582 12.4232ZM20.5329 9.60002L23.2735 8.34081L19.9335 1.07139L17.1929 2.3306L20.5329 9.60002ZM23.2516 8.35082C26.8754 6.71222 30.17 6.19541 33.8891 6.76234C37.7441 7.35 42.2867 9.13737 48.2913 12.5531L52.2469 5.59949C45.8815 1.97846 40.3504 -0.345115 35.0947 -1.14629C29.703 -1.9682 24.8498 -1.15173 19.9555 1.06139L23.2516 8.35082ZM46.6988 7.27274L39.4398 21.6426L46.5804 25.2497L53.8394 10.8799L46.6988 7.27274ZM43.8598 19.5374L40.4525 18.7967L38.7531 26.6141L42.1604 27.3548L43.8598 19.5374ZM42.206 19.6684C39.7677 17.5784 37.1711 16.123 34.6457 15.2812L32.1159 22.8707C33.5904 23.3622 35.2899 24.277 36.9997 25.7424L42.206 19.6684ZM33.7878 15.0967C29.9065 14.6997 27.0104 15.3041 24.8474 16.4458C23.7826 17.0077 22.9904 17.6509 22.4049 18.2287C21.9629 18.6649 21.3318 19.4254 21.5027 19.2332L27.4819 24.5481C27.9977 23.9678 28.0455 23.8037 28.5815 23.5208C29.085 23.2551 30.3369 22.7855 32.9739 23.0552L33.7878 15.0967ZM20.6976 23.1555C21.3183 25.0179 22.6639 26.3132 23.7937 27.178C24.9705 28.0787 26.3777 28.8582 27.7555 29.5493C29.1464 30.2469 30.7149 30.9546 32.2352 31.6515C33.7898 32.3642 35.3512 33.0909 36.8799 33.8847C43.2655 37.2005 47.4542 40.8642 47.4542 46.5563H55.4542C55.4542 35.8787 47.162 30.2095 40.5666 26.7848C38.85 25.8935 37.1349 25.0971 35.5689 24.3792C33.9688 23.6457 32.5726 23.0155 31.3421 22.3983C30.0985 21.7746 29.2274 21.2625 28.6563 20.8253C28.0382 20.3522 28.1662 20.2633 28.287 20.6257L20.6976 23.1555ZM47.4542 46.5563C47.4542 47.7721 47.3322 48.845 47.0303 49.8512L54.693 52.15C55.2799 50.1934 55.4542 48.3035 55.4542 46.5563H47.4542ZM47.0156 49.9017L45.9786 53.5312L53.6707 55.729L54.7077 52.0995L47.0156 49.9017ZM45.9786 53.5312C44.8116 57.6154 42.3063 61.2785 38.4374 63.5661C34.5972 65.8366 28.9981 66.9953 21.187 65.3119L19.5016 73.1324C28.875 75.1525 36.6087 73.941 42.509 70.4524C48.3803 66.981 52.023 61.4962 53.6707 55.729L45.9786 53.5312ZM21.194 65.3134L17.7867 64.5727L16.0873 72.3901L19.4946 73.1308L21.194 65.3134ZM17.8109 64.578C13.4264 63.5964 8.49256 61.4663 3.22569 57.7933L-1.35041 64.3553C4.64155 68.5339 10.5221 71.1443 16.0631 72.3848L17.8109 64.578ZM4.37911 63.113L12.4529 49.4839L5.56994 45.4065L-2.50383 59.0356L4.37911 63.113ZM10.0421 51.3101L13.3753 50.4213L11.314 42.6914L7.98075 43.5803L10.0421 51.3101ZM102.829 22.5573L100.886 26.0539L101.39 26.3339L101.953 26.4601L102.829 22.5573ZM97.8662 20.6314L98.9492 16.7808L98.7391 16.7217L98.5238 16.6858L97.8662 20.6314ZM93.6441 20.3351L93.7911 24.3324L93.8175 24.3315L93.8439 24.3301L93.6441 20.3351ZM74.756 31.7421L78.6672 32.5802L78.6798 32.5212L78.6907 32.4619L74.756 31.7421ZM105.496 50.408L107.025 54.1041L107.034 54.1004L105.496 50.408ZM107.273 49.6673L111.182 48.8176L110.163 44.13L105.735 45.975L107.273 49.6673ZM110.236 63.2964L114.088 64.375L114.356 63.4179L114.145 62.4467L110.236 63.2964ZM109.199 67L113.003 68.2363L113.029 68.1579L113.051 68.0785L109.199 67ZM84.6815 69.1481L85.5904 65.2527L85.5609 65.2458L85.5312 65.2394L84.6815 69.1481ZM81.2742 68.4074L82.124 64.4986L82.1206 64.4979L81.2742 68.4074ZM64.5341 15.6686L61.7693 12.7781L61.7515 12.7951L61.7339 12.8124L64.5341 15.6686ZM66.2378 14.0391L69.0027 16.9296L69.016 16.9169L69.0293 16.904L66.2378 14.0391ZM76.1633 7.22452L74.4933 3.58982L74.4917 3.59056L76.1633 7.22452ZM78.904 5.96531L77.2439 2.32602L77.234 2.3306L78.904 5.96531ZM110.236 5.96531L114.145 6.81365L114.723 4.14938L112.455 2.63711L110.236 5.96531ZM106.458 23.372L105.582 27.2749L109.513 28.1573L110.367 24.2204L106.458 23.372ZM104.772 19.0606C103.095 18.1294 101.529 17.5063 98.9492 16.7808L96.7832 24.482C98.9443 25.0898 99.8961 25.5037 100.886 26.0539L104.772 19.0606ZM98.5238 16.6858C97.0304 16.4369 95.3149 16.2466 93.4444 16.3401L93.8439 24.3301C94.9362 24.2755 96.0354 24.3815 97.2086 24.577L98.5238 16.6858ZM93.4972 16.3378C87.8705 16.5447 82.7341 18.0361 78.7422 20.4935C74.7905 22.9261 71.6428 26.5314 70.8213 31.0223L78.6907 32.4619C78.9802 30.8789 80.2398 28.9659 82.936 27.3061C85.5919 25.6711 89.3441 24.4959 93.7911 24.3324L93.4972 16.3378ZM70.8448 30.904C70.5241 32.4004 70.5338 33.6001 70.5338 34.5568H78.5338C78.5338 33.5877 78.5434 33.1578 78.6672 32.5802L70.8448 30.904ZM70.5338 34.5568C70.5338 47.947 82.7409 56.5561 94.6811 56.5561V48.5561C85.8814 48.5561 78.5338 42.351 78.5338 34.5568H70.5338ZM94.6811 56.5561C100.023 56.5561 104.553 55.1268 107.025 54.1041L103.966 46.712C102.141 47.467 98.6725 48.5561 94.6811 48.5561V56.5561ZM107.034 54.1004L108.812 53.3596L105.735 45.975L103.957 46.7157L107.034 54.1004ZM103.365 50.5171L106.327 64.1462L114.145 62.4467L111.182 48.8176L103.365 50.5171ZM106.384 62.2179L105.347 65.9215L113.051 68.0785L114.088 64.375L106.384 62.2179ZM109.199 67C105.395 65.7637 105.398 65.7542 105.401 65.7448C105.402 65.7417 105.405 65.7323 105.407 65.726C105.412 65.7135 105.416 65.7011 105.42 65.6888C105.429 65.664 105.437 65.6395 105.446 65.6153C105.464 65.5668 105.483 65.5194 105.502 65.473C105.541 65.3802 105.582 65.2922 105.624 65.2089C105.71 65.0419 105.801 64.8978 105.889 64.7757C106.068 64.5304 106.228 64.3884 106.305 64.3274C106.443 64.218 106.277 64.3969 105.42 64.6703C103.67 65.228 99.7389 65.9629 91.5702 65.9629V73.9629C100.067 73.9629 104.951 73.2163 107.849 72.2925C109.315 71.8252 110.432 71.2634 111.272 70.5985C111.7 70.2597 112.065 69.8863 112.361 69.479C112.509 69.2758 112.636 69.0681 112.744 68.8576C112.798 68.7527 112.846 68.648 112.889 68.544C112.911 68.492 112.931 68.4403 112.95 68.389C112.96 68.3633 112.969 68.3378 112.978 68.3123C112.982 68.2996 112.986 68.2869 112.991 68.2742C112.993 68.2679 112.996 68.2584 112.997 68.2553C113 68.2458 113.003 68.2363 109.199 67ZM91.5702 65.9629C89.536 65.9629 87.5455 65.7089 85.5904 65.2527L83.7726 73.0434C86.2618 73.6242 88.8637 73.9629 91.5702 73.9629V65.9629ZM85.5312 65.2394L82.124 64.4986L80.4245 72.3161L83.8318 73.0568L85.5312 65.2394ZM82.1206 64.4979C69.2824 61.7185 58.979 50.5966 58.979 37.6678H50.979C50.979 54.9601 64.5264 68.8742 80.4279 72.3168L82.1206 64.4979ZM58.979 37.6678C58.979 33.809 59.4397 30.7179 60.6251 27.8228C61.8117 24.9246 63.8347 21.9561 67.3344 18.5249L61.7339 12.8124C57.6784 16.7883 54.9237 20.6343 53.2216 24.7915C51.5182 28.9516 50.979 33.1565 50.979 37.6678H58.979ZM67.299 18.5592L69.0027 16.9296L63.4729 11.1485L61.7693 12.7781L67.299 18.5592ZM69.0293 16.904C71.5924 14.4066 74.5471 12.3709 77.835 10.8585L74.4917 3.59056C70.3724 5.48544 66.6607 8.04217 63.4463 11.1742L69.0293 16.904ZM77.8333 10.8592L80.574 9.60002L77.234 2.3306L74.4933 3.58982L77.8333 10.8592ZM80.564 9.60459C84.3015 7.89976 88.4783 6.92839 92.6071 6.92839V-1.07161C87.2549 -1.07161 81.9506 0.179159 77.2439 2.32603L80.564 9.60459ZM92.6071 6.92839C100.193 6.92839 103.658 7.3629 105.375 7.81496C106.778 8.18441 106.519 8.29495 108.017 9.29351L112.455 2.63711C111.953 2.30239 110.509 0.894471 107.412 0.0787768C104.629 -0.654306 100.28 -1.07161 92.6071 -1.07161V6.92839ZM106.327 5.11697L102.549 22.5237L110.367 24.2204L114.145 6.81365L106.327 5.11697ZM107.335 19.4692L103.705 18.6544L101.953 26.4601L105.582 27.2749L107.335 19.4692ZM154.964 51.1488L156.331 54.9079L156.669 54.785L156.98 54.6039L154.964 51.1488ZM157.557 49.371L160.055 52.4945L160.316 52.2859L160.539 52.0369L157.557 49.371ZM150.372 20.9277L151.649 17.1371L151.267 17.0085L150.868 16.9586L150.372 20.9277ZM132.965 31.5199L129.259 30.0154L129.067 30.4868L129 30.9912L132.965 31.5199ZM124.002 14.5576L121.237 11.667L121.227 11.6773L121.216 11.6877L124.002 14.5576ZM125.706 12.928L128.471 15.8186L128.503 15.7879L128.534 15.7564L125.706 12.928ZM134.446 6.92824L136.102 10.5697L136.109 10.5663L136.116 10.5629L134.446 6.92824ZM137.187 5.66902L135.543 2.02268L135.53 2.02845L135.517 2.03432L137.187 5.66902ZM179.111 43.5194L175.269 42.4072L175.265 42.4205L179.111 43.5194ZM178.074 47.1489L174.228 46.05L174.227 46.055L178.074 47.1489ZM142.224 69.2221L141.374 73.1309L141.386 73.1333L142.224 69.2221ZM138.817 68.4814L139.666 64.5727L139.66 64.5714L138.817 68.4814ZM128.669 34.5568C128.669 41.8989 132.114 47.3578 136.377 50.8872C140.507 54.3075 145.63 56.1117 149.631 56.1117V48.1117C147.706 48.1117 144.348 47.1012 141.479 44.7254C138.741 42.4587 136.669 39.1402 136.669 34.5568H128.669ZM149.631 56.1117C151.997 56.1117 154.311 55.6426 156.331 54.9079L153.597 47.3896C152.358 47.8401 150.969 48.1117 149.631 48.1117V56.1117ZM156.98 54.6039C158.041 53.9844 159.166 53.2064 160.055 52.4945L155.058 46.2476C154.466 46.7209 153.664 47.2761 152.949 47.6936L156.98 54.6039ZM160.539 52.0369C162.81 49.4967 164.385 47.361 165.237 44.8863C166.073 42.4575 166.075 40.0427 166.075 37.5197H158.075C158.075 40.2556 158.003 41.3222 157.672 42.2822C157.358 43.1962 156.674 44.3567 154.574 46.7052L160.539 52.0369ZM166.075 37.5197C166.075 28.1107 160.101 19.9852 151.649 17.1371L149.094 24.7183C154.271 26.4626 158.075 31.5217 158.075 37.5197H166.075ZM150.868 16.9586C150.318 16.8899 149.478 16.7796 148.594 16.7796V24.7796C148.896 24.7796 149.24 24.8174 149.876 24.8968L150.868 16.9586ZM148.594 16.7796C143.929 16.7796 139.885 17.6984 136.508 20.0714C133.155 22.4271 130.936 25.8826 129.259 30.0154L136.671 33.0244C138.031 29.6759 139.478 27.7613 141.107 26.6172C142.711 25.4903 144.963 24.7796 148.594 24.7796V16.7796ZM129 30.9912C128.873 31.9454 128.669 33.1817 128.669 34.5568H136.669C136.669 33.8579 136.761 33.3165 136.93 32.0485L129 30.9912ZM118.373 37.5197C118.373 33.3332 118.842 29.988 120.049 26.9199C121.25 23.8677 123.286 20.8284 126.789 17.4275L121.216 11.6877C117.09 15.6939 114.311 19.6543 112.605 23.9907C110.904 28.3112 110.373 32.7434 110.373 37.5197H118.373ZM126.767 17.4481L128.471 15.8186L122.941 10.0374L121.237 11.667L126.767 17.4481ZM128.534 15.7564C130.69 13.6013 133.247 11.8673 136.102 10.5697L132.791 3.28677C129.128 4.95203 125.759 7.21784 122.878 10.0996L128.534 15.7564ZM136.116 10.5629L138.857 9.30373L135.517 2.03432L132.776 3.29353L136.116 10.5629ZM138.831 9.31537C142.149 7.81939 145.813 6.92839 149.631 6.92839V-1.07161C144.561 -1.07161 139.781 0.111396 135.543 2.02268L138.831 9.31537ZM149.631 6.92839C161.277 6.92839 176.371 17.4198 176.371 34.5568H184.371C184.371 12.2879 164.947 -1.07161 149.631 -1.07161V6.92839ZM176.371 34.5568C176.371 37.2907 175.979 39.9532 175.269 42.4072L182.954 44.6317C183.873 41.4562 184.371 38.0449 184.371 34.5568H176.371ZM175.265 42.4205L174.228 46.05L181.92 48.2478L182.957 44.6183L175.265 42.4205ZM174.227 46.055C172.268 52.9457 168.984 57.8471 164.797 61.0422C160.612 64.2351 155.211 65.9629 148.594 65.9629V73.9629C156.643 73.9629 163.834 71.8389 169.649 67.4024C175.461 62.9682 179.585 56.4627 181.922 48.2428L174.227 46.055ZM148.594 65.9629C146.736 65.9629 144.955 65.7165 143.062 65.3109L141.386 73.1333C143.641 73.6166 146.008 73.9629 148.594 73.9629V65.9629ZM143.074 65.3134L139.666 64.5727L137.967 72.3901L141.374 73.1308L143.074 65.3134ZM139.66 64.5714C127.488 61.9447 118.373 50.6596 118.373 37.5197H110.373C110.373 54.3045 121.998 68.9443 137.973 72.3914L139.66 64.5714ZM189.568 4.11353V0.113531H188.714L187.935 0.462259L189.568 4.11353ZM211.938 4.11353L212.044 0.114934L211.991 0.113531H211.938V4.11353ZM231.937 28.6311L235.783 29.73L235.796 29.6855L235.807 29.6408L231.937 28.6311ZM230.9 32.2606L227.054 31.1617L230.9 32.2606ZM223.048 41.9639L221.057 38.4949L217.37 40.6116L219.707 44.163L223.048 41.9639ZM238.307 65.1482L242.153 66.2471L242.657 64.4823L241.648 62.9492L238.307 65.1482ZM237.27 68.7777V72.7777H240.287L241.116 69.8766L237.27 68.7777ZM218.456 68.7777L215.073 70.9116L216.25 72.7777H218.456V68.7777ZM204.16 46.1119L207.543 43.978L200.16 32.2719V46.1119H204.16ZM204.16 65.1482L207.781 66.8478L208.16 66.0403V65.1482H204.16ZM202.456 68.7777V72.7777H204.998L206.077 70.4773L202.456 68.7777ZM185.124 68.7777H181.124V72.7777H185.124V68.7777ZM185.124 7.00231L182.295 4.17388L181.124 5.34545V7.00231H185.124ZM186.753 5.37274L185.12 1.72147L184.447 2.02271L183.925 2.54431L186.753 5.37274ZM203.493 31.3717H199.493V35.473L203.593 35.3705L203.493 31.3717ZM212.308 30.3347L213.437 34.1722L216.308 33.3277V30.3347H212.308ZM212.308 30.2607L209.012 27.9946L208.308 29.0183V30.2607H212.308ZM208.086 19.15L209.351 15.3553L208.949 15.2213L208.528 15.1745L208.086 19.15ZM203.493 18.8537V14.8537H199.493V18.8537H203.493ZM189.568 8.11353H211.938V0.113531H189.568V8.11353ZM211.832 8.11213C216.679 8.24053 220.944 9.7786 223.923 12.2912C226.827 14.7413 228.678 18.242 228.678 22.8536H236.678C236.678 15.8359 233.75 10.1148 229.081 6.17619C224.486 2.30017 218.381 0.282822 212.044 0.114934L211.832 8.11213ZM228.678 22.8536C228.678 24.6283 228.433 26.2143 228.066 27.6214L235.807 29.6408C236.329 27.6406 236.678 25.375 236.678 22.8536H228.678ZM228.091 27.5322L227.054 31.1617L234.746 33.3595L235.783 29.73L228.091 27.5322ZM227.054 31.1617C226.164 34.2761 225.425 35.416 224.841 36.0348C224.135 36.7836 223.36 37.1726 221.057 38.4949L225.04 45.4329C226.736 44.459 228.924 43.3666 230.662 41.5229C232.523 39.5492 233.71 36.9856 234.746 33.3595L227.054 31.1617ZM219.707 44.163L234.966 67.3473L241.648 62.9492L226.39 39.7649L219.707 44.163ZM234.461 64.0493L233.424 67.6788L241.116 69.8766L242.153 66.2471L234.461 64.0493ZM237.27 64.7777H218.456V72.7777H237.27V64.7777ZM221.839 66.6438L207.543 43.978L200.777 48.2458L215.073 70.9116L221.839 66.6438ZM200.16 46.1119V65.1482H208.16V46.1119H200.16ZM200.539 63.4486L198.836 67.0781L206.077 70.4773L207.781 66.8478L200.539 63.4486ZM202.456 64.7777H185.124V72.7777H202.456V64.7777ZM189.124 68.7777V7.00231H181.124V68.7777H189.124ZM187.952 9.83074L189.582 8.20117L183.925 2.54431L182.295 4.17388L187.952 9.83074ZM188.387 9.02402L191.202 7.7648L187.935 0.462259L185.12 1.72147L188.387 9.02402ZM203.593 35.3705C206.568 35.2961 210.368 35.0747 213.437 34.1722L211.179 26.4973C209.211 27.0762 206.345 27.2992 203.394 27.373L203.593 35.3705ZM216.308 30.3347V30.2607H208.308V30.3347H216.308ZM215.604 32.5268C215.918 32.0709 216.115 31.8334 216.255 31.6668C216.301 31.6126 216.482 31.4017 216.628 31.2051C216.813 30.9576 217.086 30.5525 217.294 29.9986C217.672 28.9894 217.603 27.9962 217.598 27.8194C217.587 27.4202 217.567 27.004 217.567 26.2608H209.567C209.567 27.1472 209.593 27.7495 209.601 28.0355C209.606 28.2082 209.6 28.1705 209.607 28.0705C209.616 27.9294 209.651 27.5961 209.803 27.1896C209.956 26.7838 210.148 26.513 210.217 26.4205C210.248 26.379 210.278 26.344 210.129 26.5213C209.88 26.8177 209.513 27.2653 209.012 27.9946L215.604 32.5268ZM217.567 26.2608C217.567 23.5182 216.795 21.0704 215.153 19.094C213.566 17.1831 211.449 16.0546 209.351 15.3553L206.821 22.9447C208.056 23.3565 208.68 23.8205 209 24.2057C209.265 24.5256 209.567 25.0776 209.567 26.2608H217.567ZM208.528 15.1745C207.134 15.0196 205.189 14.8537 203.493 14.8537V22.8537C204.761 22.8537 206.372 22.9841 207.644 23.1255L208.528 15.1745ZM199.493 18.8537V31.3717H207.493V18.8537H199.493ZM277.634 4.11353H281.634V0.113531H277.634V4.11353ZM277.634 16.2612L281.48 17.3601L281.634 16.8214V16.2612H277.634ZM276.597 19.8907V23.8907H279.614L280.443 20.9896L276.597 19.8907ZM256.598 19.8907V15.8907H252.598V19.8907H256.598ZM256.598 28.4089H252.598V32.4089H256.598V28.4089ZM276.745 28.4089H280.745V24.4089H276.745V28.4089ZM276.745 40.7047L280.591 41.8036L280.745 41.2649V40.7047H276.745ZM275.708 44.3342V48.3342H278.725L279.554 45.4331L275.708 44.3342ZM256.598 44.3342V40.3342H252.598V44.3342H256.598ZM256.598 53.0005H252.598V57.0005H256.598V53.0005ZM277.634 53.0005H281.634V49.0005H277.634V53.0005ZM277.634 65.1482L281.48 66.2471L281.634 65.7084V65.1482H277.634ZM276.597 68.7777V72.7777H279.614L280.443 69.8766L276.597 68.7777ZM238.228 68.7777H234.228V72.7777H238.228V68.7777ZM238.228 7.00231L235.4 4.17388L234.228 5.34545V7.00231H238.228ZM239.858 5.37274L238.224 1.72147L237.551 2.02271L237.029 2.54431L239.858 5.37274ZM242.673 4.11353V0.113531H241.819L241.039 0.462259L242.673 4.11353ZM273.634 4.11353V16.2612H281.634V4.11353H273.634ZM273.788 15.1623L272.751 18.7918L280.443 20.9896L281.48 17.3601L273.788 15.1623ZM276.597 15.8907H256.598V23.8907H276.597V15.8907ZM252.598 19.8907V28.4089H260.598V19.8907H252.598ZM256.598 32.4089H276.745V24.4089H256.598V32.4089ZM272.745 28.4089V40.7047H280.745V28.4089H272.745ZM272.899 39.6058L271.862 43.2353L279.554 45.4331L280.591 41.8036L272.899 39.6058ZM275.708 40.3342H256.598V48.3342H275.708V40.3342ZM252.598 44.3342V53.0005H260.598V44.3342H252.598ZM256.598 57.0005H277.634V49.0005H256.598V57.0005ZM273.634 53.0005V65.1482H281.634V53.0005H273.634ZM273.788 64.0493L272.751 67.6788L280.443 69.8766L281.48 66.2471L273.788 64.0493ZM276.597 64.7777H238.228V72.7777H276.597V64.7777ZM242.228 68.7777V7.00231H234.228V68.7777H242.228ZM241.057 9.83074L242.686 8.20117L237.029 2.54431L235.4 4.17388L241.057 9.83074ZM241.491 9.02402L244.306 7.7648L241.039 0.462259L238.224 1.72147L241.491 9.02402ZM242.673 8.11353H277.634V0.113531H242.673V8.11353Z" fill="black" fill-opacity="0.04" mask="url(#path-1-outside-1_2152_965)"/>
</svg>
