<svg width="1579" height="676" viewBox="0 0 1579 676" fill="none" xmlns="http://www.w3.org/2000/svg">
<path d="M362.35 0.849987V207.7C362.35 219.25 360.95 229.75 358.15 239.2L353.25 256.35C341.35 297.65 321.05 312 267.15 312C225.85 312 190.15 308.5 190.15 308.5L174.05 305L195.05 242L202.75 234.3L216.05 228C216.05 228 254.9 233.95 269.25 231.15C276.95 218.9 275.55 228 275.55 204.9V14.5L283.25 6.79999L296.55 0.849987H362.35ZM572.588 0.849987V58.25L567.688 75.4H473.188V115.65H568.388V173.75L563.488 190.9H473.188V231.85H572.588V289.25L567.688 306.4H386.388V14.5L394.088 6.79999L407.388 0.849987H572.588ZM847.436 0.849987V186.7C847.436 201.75 845.686 215.4 842.186 227.3L837.286 244.45C822.936 294.15 796.686 312 729.836 312C716.536 312 704.286 310.6 693.086 308.15L676.986 304.65C627.286 293.8 601.036 259.15 601.036 200.7V14.5L608.736 6.79999L622.036 0.849987H687.836V167.8C687.836 225.9 712.336 229.75 734.736 229.75C740.686 229.75 746.286 229.4 750.836 228.35C760.286 214.35 760.636 217.15 760.636 181.1V14.5L768.336 6.79999L781.636 0.849987H847.436ZM1092.15 158.7C1092.15 119.5 1078.5 89.75 1040 78.2C1034.05 77.5 1026.7 76.8 1020.05 76.8V230.45C1039.3 230.45 1053.65 228.35 1065.55 224.15C1069.05 222.05 1072.2 219.6 1074.65 217.85C1092.5 196.85 1092.15 190.9 1092.15 158.7ZM954.246 0.849987H1038.25C1100.55 0.849987 1183.5 49.5 1183.5 144.7C1183.5 159.4 1181.75 173.4 1177.9 186.35L1173 203.5C1153.05 273.15 1103.7 306.4 1033.35 306.4H933.246V14.5L940.946 6.79999L954.246 0.849987ZM1397 0.849987V58.25L1392.1 75.4H1297.6V115.65H1392.8V173.75L1387.9 190.9H1297.6V231.85H1397V289.25L1392.1 306.4H1210.8V14.5L1218.5 6.79999L1231.8 0.849987H1397ZM87.2498 479.65C101.25 479.3 117 478.25 128.9 474.75V474.4C136.6 463.2 134.85 470.9 134.85 455.5C134.85 436.95 124.7 427.15 108.95 421.9C102.65 421.2 94.2498 420.5 87.2498 420.5V479.65ZM21.4498 350.85H127.15C188.4 352.6 239.85 397.4 221.65 466.35L216.75 483.5C200.65 539.85 142.9 548.25 87.2498 549.3V639.25L82.3498 656.4H0.449805V364.5L8.14981 356.8L21.4498 350.85ZM270.278 350.85H375.978C428.828 352.25 473.978 384.45 473.978 439.4C473.978 449.55 472.578 458.65 470.478 466.7L465.578 483.85C456.478 515.7 447.378 518.85 428.478 529.7L500.578 639.25L495.678 656.4H406.778L339.228 549.3V639.25L331.178 656.4H249.278V364.5L256.978 356.8L270.278 350.85ZM336.078 479.65C350.078 479.3 365.828 478.25 377.728 474.75V474.4C385.428 463.2 383.678 470.9 383.678 455.5C383.678 436.95 373.528 427.15 357.778 421.9C351.478 421.2 343.078 420.5 336.078 420.5V479.65ZM583.156 494.7C583.156 551.05 635.306 577.65 663.306 577.65C672.056 577.65 680.806 575.9 688.506 573.1C692.706 570.65 697.256 567.5 700.756 564.7C721.406 541.6 722.106 533.55 722.106 508.7C722.106 472.3 699.006 441.15 666.806 430.3C664.006 429.95 661.206 429.6 658.406 429.6C619.206 429.6 598.906 445 584.556 480.35C583.856 485.6 583.156 489.8 583.156 494.7ZM496.706 508.7C496.706 466.35 506.156 435.2 542.206 400.2L550.256 392.5C562.156 380.6 576.156 371.15 591.556 364.15L604.506 358.2C622.356 350.15 642.306 345.25 663.306 345.25C727.006 345.25 808.556 401.6 808.556 494.7C808.556 509.4 806.456 523.75 802.606 537.05L797.706 554.2C777.406 625.6 727.706 662 658.406 662C647.906 662 638.106 660.6 628.306 658.5L612.206 655C545.706 640.65 496.706 579.4 496.706 508.7ZM1079.52 350.85V536.7C1079.52 551.75 1077.77 565.4 1074.27 577.3L1069.37 594.45C1055.02 644.15 1028.77 662 961.916 662C948.616 662 936.366 660.6 925.166 658.15L909.066 654.65C859.366 643.8 833.116 609.15 833.116 550.7V364.5L840.816 356.8L854.116 350.85H919.916V517.8C919.916 575.9 944.416 579.75 966.816 579.75C972.766 579.75 978.366 579.4 982.916 578.35C992.366 564.35 992.716 567.15 992.716 531.1V364.5L1000.42 356.8L1013.72 350.85H1079.52ZM1101.27 425.4V364.5L1109.32 356.8L1122.27 350.85H1325.27V408.25L1320.37 425.4H1256.67V639.25L1251.77 656.4H1169.87V425.4H1101.27ZM1394.1 551.4C1429.8 576.25 1458.85 583.25 1483.7 579.75C1485.8 574.85 1485.8 581.15 1485.8 568.9C1485.8 523.05 1365.4 513.25 1365.4 447.1C1365.4 423.65 1369.25 406.85 1392 384.45L1399.7 376.75C1406.7 369.75 1415.1 364.15 1424.9 359.6L1437.85 353.65C1478.1 335.45 1514.85 341.05 1573.3 374.3L1539 442.2L1522.9 438.7C1513.1 430.3 1502.95 424.7 1493.5 421.55C1462.7 418.4 1454.3 431.7 1451.5 434.85C1460.95 463.2 1578.9 474.05 1578.9 551.4C1578.9 558.4 1578.2 565.4 1576.1 572.4L1571.2 589.55C1557.9 636.1 1513.1 676 1431.9 658.5L1415.8 655C1392.35 649.75 1366.8 638.55 1340.2 620L1378.35 555.6L1394.1 551.4Z" fill="white"/>
</svg>
