<svg width="1291" height="144" viewBox="0 0 1291 144" fill="none" xmlns="http://www.w3.org/2000/svg">
<path d="M1096.85 56.8339V47.0419L1098.25 45.6339L1100.69 44.5459H1112.01V56.8339H1118.93V65.4099L1118.03 68.5459H1112.01V75.8419C1112.01 80.8339 1114.51 80.3859 1114.57 80.3859C1114.83 80.3859 1115.21 80.3219 1115.28 80.3219L1117.39 79.4259L1120.21 88.5139L1119.31 91.7139C1119.31 91.7139 1118.41 93.7619 1110.99 93.7619C1109.84 93.7619 1108.81 93.6339 1107.85 93.4419L1104.91 92.8019C1098.51 91.3939 1096.85 85.6339 1096.85 80.5779V68.5459H1095.05L1092.11 67.9059V59.3299L1093.52 57.9219L1095.95 56.8339H1096.85Z" fill="white"/>
<path d="M1071.1 59.9696C1071.93 59.2016 1073.09 58.4976 1074.3 57.9216L1076.73 56.8336C1078.08 56.2576 1079.55 55.8096 1081.28 55.8096C1084.8 55.8096 1087.17 56.8976 1088.96 58.1776L1082.81 70.5936L1079.87 69.9536C1079.87 69.9536 1078.97 69.2496 1077.82 68.8656C1077.57 68.8656 1077.25 68.8016 1076.93 68.8016C1072.7 68.8016 1072.38 69.8896 1071.1 72.3216V89.6016L1070.21 92.7376H1055.93V59.3296L1057.34 57.9216L1059.77 56.8336H1071.1V59.9696Z" fill="white"/>
<path d="M1032.81 80.8979C1033.58 80.8979 1034.47 80.7059 1034.98 80.5779C1036.97 77.9539 1036.52 78.7859 1036.52 75.7139C1036.52 72.3219 1034.66 69.8259 1032.1 68.6739C1027.88 68.6739 1026.41 70.0179 1025.13 72.5779V73.2819C1025.13 79.6179 1030.82 80.8979 1032.81 80.8979ZM1051.43 60.6099V89.6019L1050.54 92.7379H1036.39V91.4579C1034.73 92.4819 1033.7 93.7619 1028.46 93.7619C1027.24 93.7619 1026.02 93.6339 1024.87 93.3779L1021.93 92.7379C1014.31 91.0739 1009.26 84.0979 1009.26 75.7139C1009.26 70.2099 1009.83 67.2659 1014.44 62.7219L1015.91 61.3139C1017.19 60.0979 1018.6 59.1379 1020.26 58.3699L1022.63 57.2819C1024.62 56.3859 1026.92 55.8099 1029.35 55.8099C1036.39 55.8099 1051.43 54.9779 1051.43 60.6099Z" fill="white"/>
<path d="M979.776 52.226C980.16 44.866 980.224 42.946 984.128 39.106L985.6 37.698C986.432 36.93 987.328 36.226 988.352 35.778L990.784 34.69C992.384 33.986 994.176 33.666 996.352 33.666C1000.64 33.666 1004.74 35.522 1006.27 36.802L1000.83 47.682L997.888 47.042C997.888 47.042 997.632 46.978 997.376 46.85C995.52 46.914 995.52 47.234 995.008 48.066C994.88 49.41 994.88 50.754 994.88 52.226H1002.37V60.802L1001.47 63.938H994.88V89.602L993.984 92.738H979.712V63.938H977.92L974.976 63.298V54.722L976.384 53.314L978.816 52.226H979.776Z" fill="white"/>
<path d="M935.947 73.2816C935.947 79.2336 942.219 80.6416 943.563 80.6416C944.331 80.6416 945.227 80.5776 945.675 80.2576C947.787 77.6336 947.275 78.2736 947.275 75.7136C947.275 72.7056 945.355 70.0816 942.731 68.9296C938.763 68.9296 937.419 70.2736 935.947 72.9616V73.2816ZM921.995 75.7136C921.995 71.1056 922.635 68.0336 927.307 63.4896L928.715 62.0816C930.251 60.6096 932.043 59.3936 934.027 58.4976L936.395 57.4096C938.635 56.3856 941.067 55.8096 943.627 55.8096C950.219 55.8096 961.227 61.8896 961.227 73.2816C961.227 74.8176 960.971 76.2896 960.587 77.7616L959.691 80.8976C957.195 89.6656 951.371 93.7616 942.731 93.7616C941.451 93.7616 940.235 93.5696 939.019 93.3136L936.075 92.6736C928.075 90.9456 921.995 83.7776 921.995 75.7136Z" fill="white"/>
<path d="M895.096 56.8339V47.0419L896.504 45.6339L898.936 44.5459H910.264V56.8339H917.176V65.4099L916.28 68.5459H910.264V75.8419C910.264 80.8339 912.76 80.3859 912.824 80.3859C913.08 80.3859 913.464 80.3219 913.528 80.3219L915.64 79.4259L918.456 88.5139L917.56 91.7139C917.56 91.7139 916.664 93.7619 909.24 93.7619C908.088 93.7619 907.064 93.6339 906.104 93.4419L903.16 92.8019C896.76 91.3939 895.096 85.6339 895.096 80.5779V68.5459H893.304L890.36 67.9059V59.3299L891.768 57.9219L894.2 56.8339H895.096Z" fill="white"/>
<path d="M858.728 59.9696C859.56 59.2016 860.712 58.4976 861.928 57.9216L864.36 56.8336C865.704 56.2576 867.176 55.8096 868.904 55.8096C872.424 55.8096 874.792 56.8976 876.584 58.1776L870.44 70.5936L867.496 69.9536C867.496 69.9536 866.6 69.2496 865.448 68.8656C865.192 68.8656 864.872 68.8016 864.552 68.8016C860.328 68.8016 860.008 69.8896 858.728 72.3216V89.6016L857.832 92.7376H843.56V59.3296L844.968 57.9216L847.4 56.8336H858.728V59.9696Z" fill="white"/>
<path d="M816.058 69.3776H823.866C823.226 67.9696 822.266 66.9456 821.114 66.3696C817.786 66.4976 817.274 67.3936 816.058 69.3776ZM830.778 78.5296L838.97 81.9856L838.074 85.1856C834.49 91.2016 830.906 93.7616 821.05 93.7616C819.706 93.7616 818.362 93.5696 817.082 93.3136L814.138 92.6736C806.074 90.9456 800.058 83.9696 800.058 75.7136C800.058 70.9136 800.634 68.0976 805.242 63.5536L806.714 62.1456C808.186 60.6736 809.978 59.4576 811.898 58.5616L814.33 57.4736C816.634 56.4496 819.194 55.8096 821.946 55.8096C829.178 55.8096 839.546 60.9296 839.546 75.1376L838.65 78.2736H816.506C818.746 82.1776 821.882 82.8816 825.786 81.7296C826.618 81.2176 827.578 80.4496 828.41 79.6816L830.778 78.5296Z" fill="white"/>
<path d="M779.749 75.7136C779.749 72.3856 778.021 69.8256 775.397 68.6736C771.045 68.6736 769.637 70.0176 768.421 72.2576V74.8176C769.445 80.1936 774.565 80.8976 775.909 80.8976C776.677 80.8976 777.701 80.8336 778.149 80.5136C780.197 77.8256 779.749 78.7856 779.749 75.7136ZM757.221 56.8336H768.421V59.5216C768.997 59.1376 769.893 58.6896 770.661 58.3056L773.029 57.2176C774.885 56.3856 777.061 55.8096 779.301 55.8096C785.957 55.8096 795.621 61.4416 795.621 73.1536C795.621 75.0096 795.301 76.9296 794.853 78.5936L793.957 81.7296C791.461 90.3696 786.597 93.7616 778.405 93.7616C776.613 93.7616 772.517 93.8256 768.485 93.6336V106.242L767.653 109.378H753.381V59.3296L754.789 57.9216L757.221 56.8336Z" fill="white"/>
<path d="M699.107 92.7376H684.387V58.8176L685.795 57.4096L688.227 56.3216H697.187V58.0496L698.979 57.2176C700.899 56.3216 703.267 55.8096 706.403 55.8096C712.547 55.8096 713.891 54.8496 717.859 59.4576C718.627 58.8176 719.459 58.3696 720.227 57.9856L722.595 56.8976C724.835 55.8736 727.267 55.8096 730.467 55.8096C740.771 55.8096 748.323 58.6256 748.323 71.2336V89.6016L747.427 92.7376H733.155V76.4816C733.155 71.8096 732.195 69.3136 730.019 68.2256C729.827 68.2256 729.699 68.1616 729.571 68.1616C725.283 68.1616 725.155 68.8656 724.195 70.7856V89.6016L723.299 92.7376H708.835V73.5376C708.515 70.7216 707.555 68.9936 705.955 68.2256C705.763 68.2256 705.635 68.1616 705.507 68.1616C701.347 68.1616 700.835 69.0576 700.003 70.7856V89.6016L699.107 92.7376Z" fill="white"/>
<path d="M654.926 56.834V72.386C654.926 80.77 658.574 81.41 661.39 81.41C661.902 81.41 662.542 81.346 662.926 81.282C663.95 79.362 664.014 80.386 664.014 74.946V59.33L665.422 57.922L667.854 56.834H679.182V75.202C679.182 77.506 678.926 79.554 678.414 81.282L677.518 84.418C675.534 91.458 672.27 93.762 660.494 93.762C657.806 93.762 655.438 93.506 653.39 93.058L650.446 92.418C643.086 90.818 639.758 86.21 639.758 77.634V59.33L641.23 57.922L643.598 56.834H654.926Z" fill="white"/>
<path d="M618.626 75.7145C618.626 72.3865 616.77 69.8265 614.146 68.6745C609.922 68.6745 608.514 70.0825 607.298 72.3225V74.8185C608.258 80.1945 613.314 80.8985 614.786 80.8985C615.554 80.8985 616.386 80.8345 617.026 80.6425V80.5785C619.01 77.9545 618.626 78.8505 618.626 75.7145ZM592.258 92.7385V37.0585L593.73 35.6505L596.098 34.5625H607.426V55.9385C611.97 55.6825 616.194 55.8105 618.178 55.8105C624.77 55.8105 634.498 61.5705 634.498 73.2825C634.498 75.1385 634.242 76.9945 633.73 78.6585L632.834 81.7945C630.402 90.3705 625.538 93.7625 617.282 93.7625C616.194 93.7625 615.106 93.5705 614.082 93.3785L611.138 92.7385C609.602 92.4185 608.066 91.8425 606.85 91.1385V92.7385H592.258Z" fill="white"/>
<path d="M553.683 69.3776H561.491C560.851 67.9696 559.891 66.9456 558.739 66.3696C555.411 66.4976 554.899 67.3936 553.683 69.3776ZM568.403 78.5296L576.595 81.9856L575.699 85.1856C572.115 91.2016 568.531 93.7616 558.675 93.7616C557.331 93.7616 555.987 93.5696 554.707 93.3136L551.763 92.6736C543.699 90.9456 537.683 83.9696 537.683 75.7136C537.683 70.9136 538.259 68.0976 542.867 63.5536L544.339 62.1456C545.811 60.6736 547.603 59.4576 549.523 58.5616L551.955 57.4736C554.259 56.4496 556.819 55.8096 559.571 55.8096C566.803 55.8096 577.171 60.9296 577.171 75.1376L576.275 78.2736H554.131C556.371 82.1776 559.507 82.8816 563.411 81.7296C564.243 81.2176 565.203 80.4496 566.035 79.6816L568.403 78.5296Z" fill="white"/>
<path d="M514.247 80.8985C515.015 80.8985 515.847 80.7065 516.487 80.5785C518.279 78.2105 517.703 78.4025 517.895 77.3785V74.0505C517.383 71.4905 515.655 69.6345 513.543 68.6745C509.319 68.6745 507.847 70.0185 506.567 72.5785V73.2825C506.567 79.6185 512.263 80.8985 514.247 80.8985ZM532.039 92.7385H517.895V91.4585C516.231 92.4825 515.207 93.7625 509.959 93.7625C508.743 93.7625 507.527 93.6345 506.375 93.3785L503.431 92.7385C495.751 91.0745 490.695 84.0985 490.695 75.7145C490.695 70.2105 491.207 67.3305 495.879 62.7865L497.287 61.3785C498.567 60.0985 500.103 59.1385 501.767 58.3705L504.199 57.2825C506.183 56.3865 508.423 55.8105 510.855 55.8105C512.199 55.8105 514.951 55.7465 517.831 55.8105V37.0585L519.175 35.6505L521.607 34.5625H532.935V89.6025L532.039 92.7385Z" fill="white"/>
<path d="M470.58 47.9381C470.58 46.0821 470.068 46.0181 472.308 43.8421L473.716 42.4341C474.164 41.9861 474.804 41.6021 475.38 41.3461L477.748 40.2581C478.388 39.9381 479.092 39.7461 479.86 39.7461C480.244 39.7461 485.556 40.5141 485.556 45.4421L484.212 50.1141C483.38 53.1221 482.868 52.6101 481.78 53.3141C480.756 53.9541 481.716 54.2101 478.964 54.2101C478.58 54.2101 478.196 54.1461 477.876 54.0821L474.932 53.4421C472.5 52.9301 470.58 50.6261 470.58 47.9381ZM470.196 92.7381V58.4341L471.604 57.0261L474.036 55.9381H485.556V89.6021L484.66 92.7381H470.196Z" fill="white"/>
<path d="M442.555 78.4021C447.995 82.4981 449.787 82.0501 450.363 82.1141C449.851 77.2501 436.411 75.3301 436.411 68.9301C436.411 66.9461 436.539 65.2181 439.611 62.2101L441.019 60.8021C442.043 59.7781 443.323 58.8821 444.859 58.1781L447.291 57.0901C453.435 54.2741 459.003 55.4901 466.107 58.6901L460.987 68.9301L458.043 68.2901C456.059 67.3941 453.819 66.2421 451.643 67.0742C454.331 70.2741 466.491 72.5141 466.491 79.4901L464.955 84.8661C463.355 90.5621 456.891 95.6821 445.563 93.2501L442.619 92.6101C439.739 91.9701 436.795 90.6901 434.107 88.6421L439.739 79.2981L442.555 78.4021Z" fill="white"/>
<path d="M396.62 69.3776H404.428C403.788 67.9696 402.828 66.9456 401.676 66.3696C398.348 66.4976 397.836 67.3936 396.62 69.3776ZM411.34 78.5296L419.532 81.9856L418.636 85.1856C415.052 91.2016 411.468 93.7616 401.612 93.7616C400.268 93.7616 398.924 93.5696 397.644 93.3136L394.7 92.6736C386.636 90.9456 380.62 83.9696 380.62 75.7136C380.62 70.9136 381.196 68.0976 385.804 63.5536L387.276 62.1456C388.748 60.6736 390.54 59.4576 392.46 58.5616L394.892 57.4736C397.196 56.4496 399.756 55.8096 402.508 55.8096C409.74 55.8096 420.108 60.9296 420.108 75.1376L419.212 78.2736H397.068C399.308 82.1776 402.444 82.8816 406.348 81.7296C407.18 81.2176 408.14 80.4496 408.972 79.6816L411.34 78.5296Z" fill="white"/>
<path d="M351.992 34.5625V59.3305C352.632 58.8825 353.528 58.4345 354.296 58.0505L356.728 56.9625C358.264 56.2585 359.864 55.8105 361.528 55.8105C365.176 55.8105 375.928 57.2825 375.928 68.0345V89.6025L375.032 92.7385H360.76V73.5385C360.76 71.1705 359.544 68.9305 357.56 67.8425C354.424 67.9705 353.144 69.2505 351.992 71.2345V89.6025L351.096 92.7385H336.824V37.0585L338.232 35.6505L340.664 34.5625H351.992Z" fill="white"/>
<path d="M309.221 56.8339V47.0419L310.629 45.6339L313.061 44.5459H324.389V56.8339H331.301V65.4099L330.405 68.5459H324.389V75.8419C324.389 80.8339 326.885 80.3859 326.949 80.3859C327.205 80.3859 327.589 80.3219 327.653 80.3219L329.765 79.4259L332.581 88.5139L331.685 91.7139C331.685 91.7139 330.789 93.7619 323.365 93.7619C322.213 93.7619 321.189 93.6339 320.229 93.4419L317.285 92.8019C310.885 91.3939 309.221 85.6339 309.221 80.5779V68.5459H307.429L304.485 67.9059V59.3299L305.893 57.9219L308.325 56.8339H309.221Z" fill="white"/>
<path d="M264.544 92.7376H249.824V58.8176L251.232 57.4096L253.664 56.3216H262.624V58.0496L264.352 57.2176C266.336 56.3216 268.832 55.8096 271.968 55.8096C282.272 55.8096 289.696 58.6256 289.696 71.2336V89.6016L288.8 92.7376H274.528V76.4816C274.528 71.8096 273.632 69.3136 271.456 68.2256C271.328 68.2256 271.2 68.1616 271.072 68.1616C266.912 68.1616 266.336 69.0576 265.44 70.9136V89.6016L264.544 92.7376Z" fill="white"/>
<path d="M219.885 73.2816C219.885 79.2336 226.157 80.6416 227.501 80.6416C228.269 80.6416 229.165 80.5776 229.613 80.2576C231.725 77.6336 231.213 78.2736 231.213 75.7136C231.213 72.7056 229.293 70.0816 226.669 68.9296C222.701 68.9296 221.357 70.2736 219.885 72.9616V73.2816ZM205.933 75.7136C205.933 71.1056 206.573 68.0336 211.245 63.4896L212.653 62.0816C214.189 60.6096 215.981 59.3936 217.965 58.4976L220.333 57.4096C222.573 56.3856 225.005 55.8096 227.565 55.8096C234.157 55.8096 245.165 61.8896 245.165 73.2816C245.165 74.8176 244.909 76.2896 244.525 77.7616L243.629 80.8976C241.133 89.6656 235.309 93.7616 226.669 93.7616C225.389 93.7616 224.173 93.5696 222.957 93.3136L220.013 92.6736C212.013 90.9456 205.933 83.7776 205.933 75.7136Z" fill="white"/>
<path d="M168.243 78.4021C173.683 82.4981 175.475 82.0501 176.051 82.1141C175.539 77.2501 162.099 75.3301 162.099 68.9301C162.099 66.9461 162.227 65.2181 165.299 62.2101L166.707 60.8021C167.731 59.7781 169.011 58.8821 170.547 58.1781L172.979 57.0901C179.123 54.2741 184.691 55.4901 191.795 58.6901L186.675 68.9301L183.731 68.2901C181.747 67.3941 179.507 66.2421 177.331 67.0742C180.019 70.2741 192.179 72.5141 192.179 79.4901L190.643 84.8661C189.043 90.5621 182.579 95.6821 171.251 93.2501L168.307 92.6101C165.427 91.9701 162.483 90.6901 159.795 88.6421L165.427 79.2981L168.243 78.4021Z" fill="white"/>
<path d="M133.305 78.4021C138.745 82.4981 140.537 82.0501 141.113 82.1141C140.601 77.2501 127.161 75.3301 127.161 68.9301C127.161 66.9461 127.289 65.2181 130.361 62.2101L131.769 60.8021C132.793 59.7781 134.073 58.8821 135.609 58.1781L138.041 57.0901C144.185 54.2741 149.753 55.4901 156.857 58.6901L151.737 68.9301L148.793 68.2901C146.809 67.3941 144.569 66.2421 142.393 67.0742C145.081 70.2741 157.241 72.5141 157.241 79.4901L155.705 84.8661C154.105 90.5621 147.641 95.6821 136.313 93.2501L133.369 92.6101C130.489 91.9701 127.545 90.6901 124.857 88.6421L130.489 79.2981L133.305 78.4021Z" fill="white"/>
<path d="M97.9951 69.3776H105.803C105.163 67.9696 104.203 66.9456 103.051 66.3696C99.7231 66.4976 99.2111 67.3936 97.9951 69.3776ZM112.715 78.5296L120.907 81.9856L120.011 85.1856C116.427 91.2016 112.843 93.7616 102.987 93.7616C101.643 93.7616 100.299 93.5696 99.0191 93.3136L96.0751 92.6736C88.0111 90.9456 81.9951 83.9696 81.9951 75.7136C81.9951 70.9136 82.5711 68.0976 87.1791 63.5536L88.6511 62.1456C90.1231 60.6736 91.9151 59.4576 93.8351 58.5616L96.2671 57.4736C98.5711 56.4496 101.131 55.8096 103.883 55.8096C111.115 55.8096 121.483 60.9296 121.483 75.1376L120.587 78.2736H98.4431C100.683 82.1776 103.819 82.8816 107.723 81.7296C108.555 81.2176 109.515 80.4496 110.347 79.6816L112.715 78.5296Z" fill="white"/>
<path d="M60.5401 59.9696C61.3721 59.2016 62.5241 58.4976 63.7401 57.9216L66.1721 56.8336C67.5161 56.2576 68.9881 55.8096 70.7161 55.8096C74.2361 55.8096 76.6041 56.8976 78.3961 58.1776L72.2521 70.5936L69.3081 69.9536C69.3081 69.9536 68.4121 69.2496 67.2601 68.8656C67.0041 68.8656 66.6841 68.8016 66.3641 68.8016C62.1401 68.8016 61.8201 69.8896 60.5401 72.3216V89.6016L59.6441 92.7376H45.3721V59.3296L46.7801 57.9216L49.2121 56.8336H60.5401V59.9696Z" fill="white"/>
<path d="M15.872 60.4182C18.432 60.3542 21.312 60.1622 23.488 59.5222V59.4582C24.896 57.4102 24.576 58.8182 24.576 56.0022C24.576 52.6102 22.72 50.8182 19.84 49.8582C18.688 49.7302 17.152 49.6022 15.872 49.6022V60.4182ZM3.84 36.8662H23.168C34.368 37.1862 43.776 45.3782 40.448 57.9862L39.552 61.1222C36.608 71.4262 26.048 72.9622 15.872 73.1542V89.6022L14.976 92.7382H0V39.3622L1.408 37.9542L3.84 36.8662Z" fill="white"/>
<g clip-path="url(#clip0_2338_651)">
<path d="M1247.66 35.8005C1249.4 36.7665 1258.25 34.2968 1259.49 33.062C1261.95 30.6175 1266.28 14.1027 1275.6 25.8546C1285 37.7157 1266.1 45.9816 1269.54 49.1485C1271.2 50.6857 1290.06 48.8964 1290.79 62.0932C1291.35 72.0811 1277.88 74.2484 1277.63 75.1976C1277.4 76.0544 1287.95 81.6826 1285.35 90.2676C1283.64 95.9294 1274.49 94.829 1273.97 96.4586C1273.56 97.7438 1280.77 106.505 1272.8 116.594C1263.3 128.59 1254.26 115.569 1251.6 115.88C1250.69 115.989 1247.36 126.002 1236.98 125.406C1234.18 125.246 1228.75 121.701 1227.33 121.794C1224.32 121.995 1224.62 127.472 1216.84 125.675C1210.42 124.188 1210.86 116.754 1210.04 115.972C1209.71 115.653 1204.09 115.578 1201.62 112.293C1200.11 110.294 1199.66 104.834 1198.63 104.094C1194.38 101.096 1184.43 107.547 1179.37 94.1737C1175.99 85.2275 1177.66 73.8284 1185.37 67.6962C1186.48 66.8142 1191.06 66.3269 1191.02 65.6465C1191 65.1761 1184.79 59.3211 1184.4 59.0523C1182.25 57.5991 1176.3 58.7583 1174.26 53.0546C1172.06 46.872 1172.91 34.1204 1181.12 32.978C1192.97 31.3147 1190.5 44.7887 1199.78 38.4297C1204.86 34.952 1197.28 25.7286 1206.28 20.722C1223.36 11.2046 1221.94 25.695 1225.64 28.4755C1230.23 31.928 1232.91 14.1363 1240.74 17.3871C1246.67 19.8484 1245.1 34.3556 1247.68 35.7753L1247.66 35.8005ZM1237.8 21.3857C1234.03 22.3349 1236.98 26.8206 1239.67 26.325C1242.71 25.7622 1241.68 20.4028 1237.8 21.3857ZM1223.54 33.4988C1219.74 30.5083 1220.11 20.7304 1212.33 23.1413C1203.55 25.863 1210.07 41.0926 1209.35 41.8066C1208.63 42.5291 1197.54 38.1777 1192.63 48.1992C1186.49 60.7072 1199.23 61.858 1198.22 69.1662C1197.23 76.4072 1182.3 67.9566 1183.65 86.2355C1185.14 106.572 1203.78 97.1474 1205.72 98.6175C1207.87 100.256 1200.83 110.428 1210.65 112.091C1217.35 113.225 1224.71 103.691 1229.04 106.497C1230.71 107.572 1226.98 120.45 1235.59 121.651C1244.38 122.877 1245.18 110.319 1249.32 110.075C1253.08 109.857 1262.4 126.456 1270.86 113.225C1278.14 101.852 1261.84 95.1566 1265.11 91.7041C1265.69 91.0993 1275.64 96.6014 1279.35 89.4276C1283.06 82.2454 1271.47 76.424 1272.55 72.4087C1273.78 67.7718 1289.39 71.6779 1285.27 60.9088C1282.64 54.0374 1267.79 53.7938 1266.57 52.4497C1264.32 49.9885 1268.54 41.899 1260.52 39.4378C1254.25 37.5225 1246.78 42.3779 1244.36 41.6974C1240.51 40.597 1244.77 32.2808 1238.31 30.8275C1230.38 29.0467 1229.31 38.0349 1223.52 33.4988V33.5156L1223.54 33.4988ZM1270.85 26.5182C1264.61 27.0474 1263.05 37.9593 1268.49 38.8834C1275.55 40.093 1278.85 25.8378 1270.85 26.5182ZM1182.01 36.7917C1176.53 38.497 1178.32 53.5922 1184.61 52.685C1191.31 51.7105 1189.49 34.4648 1182.01 36.7917ZM1216.15 120.861C1221.03 125.725 1231.97 110.722 1222.23 110.714C1217.99 110.714 1213.18 117.904 1216.15 120.861Z" fill="#F1F4F2"/>
<path d="M1223.54 33.4984C1229.33 38.043 1230.4 29.0463 1238.33 30.8272C1244.79 32.2804 1240.53 40.5882 1244.38 41.6971C1246.81 42.3943 1254.29 37.5222 1260.54 39.4374C1268.57 41.8903 1264.35 49.9881 1266.6 52.4494C1267.82 53.7766 1282.66 54.0286 1285.29 60.9084C1289.42 71.6775 1273.81 67.7714 1272.57 72.4084C1271.5 76.4237 1283.24 81.9594 1279.38 89.4272C1275.51 96.8951 1265.72 91.0989 1265.14 91.7037C1261.85 95.1562 1278.16 101.851 1270.88 113.225C1262.42 126.456 1253.1 109.857 1249.35 110.075C1245.21 110.319 1244.4 122.869 1235.62 121.651C1227.01 120.458 1230.73 107.58 1229.07 106.497C1224.73 103.691 1217.38 113.225 1210.67 112.091C1200.85 110.428 1207.88 100.255 1205.74 98.6171C1203.81 97.1387 1185.17 106.572 1183.67 86.2352C1182.33 67.9478 1197.26 76.3985 1198.25 69.1659C1199.25 61.8661 1186.51 60.7068 1192.65 48.1989C1197.57 38.1774 1208.69 42.4951 1209.38 41.8063C1210.07 41.1175 1203.57 25.871 1212.36 23.141C1220.13 20.7301 1219.75 30.5164 1223.57 33.4984V33.4816L1223.54 33.4984Z" fill="#11601B"/>
<path d="M1182.01 36.7912C1189.49 34.4559 1191.31 51.7184 1184.61 52.6845C1178.32 53.5917 1176.53 38.4965 1182.01 36.7912Z" fill="#11601B"/>
<path d="M1270.85 26.5178C1278.85 25.8373 1275.56 40.0925 1268.49 38.8829C1263.05 37.9589 1264.61 27.047 1270.85 26.5178Z" fill="#11601B"/>
<path d="M1216.15 120.86C1213.19 117.912 1217.98 110.713 1222.23 110.713C1231.97 110.713 1221.03 125.716 1216.15 120.86Z" fill="#11601B"/>
<path d="M1237.8 21.3857C1241.68 20.4028 1242.7 25.7622 1239.67 26.325C1236.98 26.829 1234.04 22.3349 1237.8 21.3857Z" fill="#11601B"/>
</g>
<defs>
<clipPath id="clip0_2338_651">
<rect width="117.603" height="109.044" fill="white" transform="translate(1173.21 17)"/>
</clipPath>
</defs>
</svg>
