<svg width="911" height="99" viewBox="0 0 911 99" fill="none" xmlns="http://www.w3.org/2000/svg"  preserveAspectRatio="none">
<path d="M18.298 46.6935C20.858 46.6295 23.738 46.4375 25.914 45.7975V45.7335C27.322 43.6855 27.002 45.0935 27.002 42.2775C27.002 38.8855 25.146 37.0935 22.266 36.1335C21.114 36.0055 19.578 35.8775 18.298 35.8775V46.6935ZM6.266 23.1415H25.594C36.794 23.4615 46.202 31.6535 42.874 44.2615L41.978 47.3975C39.034 57.7015 28.474 59.2375 18.298 59.4295V75.8775L17.402 79.0135H2.426V25.6375L3.834 24.2295L6.266 23.1415ZM62.966 46.2455C63.798 45.4775 64.95 44.7735 66.166 44.1975L68.598 43.1095C69.942 42.5335 71.414 42.0855 73.142 42.0855C76.662 42.0855 79.03 43.1735 80.822 44.4535L74.678 56.8695L71.734 56.2295C71.734 56.2295 70.838 55.5255 69.686 55.1415C69.43 55.1415 69.11 55.0775 68.79 55.0775C64.566 55.0775 64.246 56.1655 62.966 58.5975V75.8775L62.07 79.0135H47.798V45.6055L49.206 44.1975L51.638 43.1095H62.966V46.2455ZM100.422 55.6535H108.23C107.59 54.2455 106.63 53.2215 105.478 52.6455C102.15 52.7735 101.638 53.6695 100.422 55.6535ZM115.142 64.8055L123.334 68.2615L122.438 71.4615C118.854 77.4775 115.27 80.0375 105.414 80.0375C104.07 80.0375 102.726 79.8455 101.446 79.5895L98.5015 78.9495C90.4375 77.2215 84.4215 70.2455 84.4215 61.9895C84.4215 57.1895 84.9975 54.3735 89.6055 49.8295L91.0775 48.4215C92.5495 46.9495 94.3415 45.7335 96.2615 44.8375L98.6935 43.7495C100.998 42.7255 103.558 42.0855 106.31 42.0855C113.542 42.0855 123.91 47.2055 123.91 61.4135L123.014 64.5495H100.87C103.11 68.4535 106.246 69.1575 110.15 68.0055C110.982 67.4935 111.942 66.7255 112.774 65.9575L115.142 64.8055ZM135.731 64.6775C141.171 68.7735 142.963 68.3255 143.539 68.3895C143.027 63.5255 129.587 61.6055 129.587 55.2055C129.587 53.2215 129.715 51.4935 132.787 48.4855L134.195 47.0775C135.219 46.0535 136.499 45.1575 138.035 44.4535L140.467 43.3655C146.611 40.5495 152.179 41.7655 159.283 44.9655L154.163 55.2055L151.219 54.5655C149.235 53.6695 146.995 52.5175 144.819 53.3495C147.507 56.5495 159.667 58.7895 159.667 65.7655L158.131 71.1415C156.531 76.8375 150.067 81.9575 138.739 79.5255L135.795 78.8855C132.915 78.2455 129.971 76.9655 127.283 74.9175L132.915 65.5735L135.731 64.6775ZM170.669 64.6775C176.109 68.7735 177.901 68.3255 178.477 68.3895C177.965 63.5255 164.525 61.6055 164.525 55.2055C164.525 53.2215 164.653 51.4935 167.725 48.4855L169.133 47.0775C170.157 46.0535 171.437 45.1575 172.973 44.4535L175.405 43.3655C181.549 40.5495 187.117 41.7655 194.221 44.9655L189.101 55.2055L186.157 54.5655C184.173 53.6695 181.933 52.5175 179.757 53.3495C182.445 56.5495 194.604 58.7895 194.604 65.7655L193.069 71.1415C191.469 76.8375 185.005 81.9575 173.677 79.5255L170.733 78.8855C167.853 78.2455 164.909 76.9655 162.221 74.9175L167.853 65.5735L170.669 64.6775Z" fill="white"/>
<rect x="217" width="101.379" height="98.956" rx="49.478" fill="#87AF07"/>
<path d="M266.765 74.917C258.502 74.9058 241.199 74.917 241.199 74.917C241.199 74.917 240.907 69.6373 241.031 66.2488C241.177 62.3763 241.312 58.8865 243.541 55.6107C245.86 52.2109 249.293 50.7024 251.399 50.027C246.907 48.6874 244.284 45.1075 243.485 43.9931C241.154 40.7509 241.109 36.991 241.031 31.5762C240.986 28.6493 241.425 25.7899 241.425 25.7899C241.515 25.1708 241.627 24.5966 241.717 24.1013L266.765 24V36.7658C266.832 37.9479 267.857 38.8484 268.983 38.7696C270.029 38.7021 270.885 37.8128 270.919 36.7096V24.2364L292.983 24.2026C293.456 25.6098 296.158 34.1541 291.34 42.2482C288.773 46.571 285.204 48.8562 283.291 49.8919C285.272 50.7024 288.053 52.2222 290.36 55.0253C296.946 63.0067 293.535 73.9038 293.197 74.917C285.745 74.7819 278.315 75.0521 270.863 74.917L270.919 62.275C270.885 61.183 269.996 60.2825 268.904 60.2487C267.812 60.2149 266.866 61.0592 266.776 62.1512V74.9058L266.765 74.917Z" fill="white"/>
<path d="M365.519 67.1735C366.287 67.1735 367.183 66.9815 367.695 66.8535C369.679 64.2295 369.231 65.0615 369.231 61.9895C369.231 58.5975 367.375 56.1015 364.815 54.9495C360.591 54.9495 359.119 56.2935 357.839 58.8535V59.5575C357.839 65.8935 363.535 67.1735 365.519 67.1735ZM384.143 46.8855V75.8775L383.247 79.0135H369.103V77.7335C367.439 78.7575 366.415 80.0375 361.167 80.0375C359.951 80.0375 358.735 79.9095 357.583 79.6535L354.639 79.0135C347.023 77.3495 341.967 70.3735 341.967 61.9895C341.967 56.4855 342.543 53.5415 347.151 48.9975L348.623 47.5895C349.903 46.3735 351.311 45.4135 352.975 44.6455L355.343 43.5575C357.327 42.6615 359.631 42.0855 362.063 42.0855C369.103 42.0855 384.143 41.2535 384.143 46.8855ZM392.87 43.1095V33.3175L394.278 31.9095L396.71 30.8215H408.038V43.1095H414.95V51.6855L414.054 54.8215H408.038V62.1175C408.038 67.1095 410.534 66.6615 410.598 66.6615C410.854 66.6615 411.238 66.5975 411.302 66.5975L413.414 65.7015L416.23 74.7895L415.334 77.9895C415.334 77.9895 414.438 80.0375 407.014 80.0375C405.862 80.0375 404.838 79.9095 403.878 79.7175L400.934 79.0775C394.534 77.6695 392.87 71.9095 392.87 66.8535V54.8215H391.078L388.134 54.1815V45.6055L389.542 44.1975L391.974 43.1095H392.87ZM434.682 43.1095V33.3175L436.09 31.9095L438.522 30.8215H449.85V43.1095H456.762V51.6855L455.866 54.8215H449.85V62.1175C449.85 67.1095 452.346 66.6615 452.41 66.6615C452.666 66.6615 453.05 66.5975 453.114 66.5975L455.226 65.7015L458.042 74.7895L457.146 77.9895C457.146 77.9895 456.25 80.0375 448.826 80.0375C447.674 80.0375 446.65 79.9095 445.69 79.7175L442.746 79.0775C436.346 77.6695 434.682 71.9095 434.682 66.8535V54.8215H432.89L429.946 54.1815V45.6055L431.354 44.1975L433.786 43.1095H434.682ZM477.454 20.8375V45.6055C478.094 45.1575 478.99 44.7095 479.758 44.3255L482.19 43.2375C483.726 42.5335 485.326 42.0855 486.99 42.0855C490.638 42.0855 501.39 43.5575 501.39 54.3095V75.8775L500.494 79.0135H486.222V59.8135C486.222 57.4455 485.006 55.2055 483.022 54.1175C479.886 54.2455 478.606 55.5255 477.454 57.5095V75.8775L476.558 79.0135H462.286V23.3335L463.694 21.9255L466.126 20.8375H477.454ZM522.082 55.6535H529.89C529.25 54.2455 528.29 53.2215 527.138 52.6455C523.81 52.7735 523.298 53.6695 522.082 55.6535ZM536.802 64.8055L544.994 68.2615L544.098 71.4615C540.514 77.4775 536.93 80.0375 527.074 80.0375C525.73 80.0375 524.386 79.8455 523.106 79.5895L520.162 78.9495C512.098 77.2215 506.082 70.2455 506.082 61.9895C506.082 57.1895 506.658 54.3735 511.266 49.8295L512.738 48.4215C514.21 46.9495 516.002 45.7335 517.922 44.8375L520.354 43.7495C522.658 42.7255 525.218 42.0855 527.97 42.0855C535.202 42.0855 545.57 47.2055 545.57 61.4135L544.674 64.5495H522.53C524.77 68.4535 527.906 69.1575 531.81 68.0055C532.642 67.4935 533.602 66.7255 534.434 65.9575L536.802 64.8055ZM575.376 46.2455C576.208 45.4775 577.36 44.7735 578.576 44.1975L581.008 43.1095C582.352 42.5335 583.824 42.0855 585.552 42.0855C589.072 42.0855 591.44 43.1735 593.232 44.4535L587.088 56.8695L584.144 56.2295C584.144 56.2295 583.248 55.5255 582.096 55.1415C581.84 55.1415 581.52 55.0775 581.2 55.0775C576.976 55.0775 576.656 56.1655 575.376 58.5975V75.8775L574.48 79.0135H560.208V45.6055L561.616 44.1975L564.048 43.1095H575.376V46.2455ZM597.792 34.2135C597.792 32.3575 597.28 32.2935 599.52 30.1175L600.928 28.7095C601.376 28.2615 602.016 27.8775 602.592 27.6215L604.96 26.5335C605.6 26.2135 606.304 26.0215 607.072 26.0215C607.456 26.0215 612.768 26.7895 612.768 31.7175L611.424 36.3895C610.592 39.3975 610.08 38.8855 608.992 39.5895C607.968 40.2295 608.928 40.4855 606.176 40.4855C605.792 40.4855 605.408 40.4215 605.088 40.3575L602.144 39.7175C599.712 39.2055 597.792 36.9015 597.792 34.2135ZM597.408 79.0135V44.7095L598.816 43.3015L601.248 42.2135H612.768V75.8775L611.872 79.0135H597.408ZM620.018 72.6135C620.018 69.6055 623.73 69.7975 619.89 64.0375C619.89 64.0375 617.138 60.2615 617.138 55.8455C617.138 51.8135 617.138 50.5335 620.53 47.2055L622.002 45.7975C623.026 44.7735 624.242 43.9415 625.714 43.3015L628.146 42.2135C630.578 41.1255 633.586 40.4215 637.042 40.4215C645.106 40.3575 642.418 41.5735 650.418 43.3655C652.146 43.4935 652.21 43.3655 653.042 42.7895L655.41 41.7655L657.842 48.1655L656.946 51.2375C656.434 52.1975 656.498 53.0295 653.106 52.9015C653.17 54.3735 653.106 55.1415 652.722 56.3575L651.826 59.4935C650.29 64.9335 646.706 67.2375 643.698 68.1975C649.778 68.8375 656.05 72.1015 656.05 78.7575L654.386 84.6455C652.722 90.3415 649.01 93.5415 635.826 93.7335C633.906 93.7335 632.05 93.6055 630.706 93.2855L627.762 92.6455C619.57 90.8535 617.97 84.1335 617.01 78.1175L618.482 76.7095L620.85 75.6855C625.778 83.4295 635.122 83.9415 641.458 82.4695C641.522 82.3415 641.586 82.7255 641.522 81.7015C641.458 80.8055 640.882 80.1015 639.986 79.7175C637.298 79.3975 632.434 79.7175 629.618 79.1415L626.674 78.5015C622.834 77.6695 620.018 75.5575 620.018 72.6135ZM630.77 53.6055C630.834 59.0455 635.954 59.3015 637.938 58.9175C639.346 56.8055 639.154 57.9575 638.962 55.0775C638.834 53.0295 637.682 51.4295 636.082 50.5975C633.01 50.6615 631.986 51.6855 630.77 53.6055ZM677.329 20.8375V45.6055C677.969 45.1575 678.865 44.7095 679.633 44.3255L682.065 43.2375C683.601 42.5335 685.201 42.0855 686.865 42.0855C690.513 42.0855 701.265 43.5575 701.265 54.3095V75.8775L700.369 79.0135H686.097V59.8135C686.097 57.4455 684.881 55.2055 682.897 54.1175C679.761 54.2455 678.481 55.5255 677.329 57.5095V75.8775L676.433 79.0135H662.161V23.3335L663.569 21.9255L666.001 20.8375H677.329ZM710.245 43.1095V33.3175L711.653 31.9095L714.085 30.8215H725.413V43.1095H732.325V51.6855L731.429 54.8215H725.413V62.1175C725.413 67.1095 727.909 66.6615 727.973 66.6615C728.229 66.6615 728.613 66.5975 728.677 66.5975L730.789 65.7015L733.605 74.7895L732.709 77.9895C732.709 77.9895 731.813 80.0375 724.389 80.0375C723.237 80.0375 722.213 79.9095 721.253 79.7175L718.309 79.0775C711.909 77.6695 710.245 71.9095 710.245 66.8535V54.8215H708.453L705.509 54.1815V45.6055L706.917 44.1975L709.349 43.1095H710.245ZM752.057 43.1095V33.3175L753.465 31.9095L755.897 30.8215H767.225V43.1095H774.137V51.6855L773.241 54.8215H767.225V62.1175C767.225 67.1095 769.721 66.6615 769.785 66.6615C770.041 66.6615 770.425 66.5975 770.489 66.5975L772.601 65.7015L775.417 74.7895L774.521 77.9895C774.521 77.9895 773.625 80.0375 766.201 80.0375C765.049 80.0375 764.025 79.9095 763.065 79.7175L760.121 79.0775C753.721 77.6695 752.057 71.9095 752.057 66.8535V54.8215H750.265L747.321 54.1815V45.6055L748.729 44.1975L751.161 43.1095H752.057ZM779.917 34.2135C779.917 32.3575 779.405 32.2935 781.645 30.1175L783.053 28.7095C783.501 28.2615 784.141 27.8775 784.717 27.6215L787.085 26.5335C787.725 26.2135 788.429 26.0215 789.197 26.0215C789.581 26.0215 794.893 26.7895 794.893 31.7175L793.549 36.3895C792.717 39.3975 792.205 38.8855 791.117 39.5895C790.093 40.2295 791.053 40.4855 788.301 40.4855C787.917 40.4855 787.533 40.4215 787.213 40.3575L784.269 39.7175C781.837 39.2055 779.917 36.9015 779.917 34.2135ZM779.533 79.0135V44.7095L780.941 43.3015L783.373 42.2135H794.893V75.8775L793.997 79.0135H779.533ZM814.943 79.0135H800.223V45.0935L801.631 43.6855L804.063 42.5975H813.023V44.3255L814.815 43.4935C816.735 42.5975 819.103 42.0855 822.239 42.0855C828.383 42.0855 829.727 41.1255 833.695 45.7335C834.463 45.0935 835.295 44.6455 836.063 44.2615L838.431 43.1735C840.671 42.1495 843.103 42.0855 846.303 42.0855C856.607 42.0855 864.159 44.9015 864.159 57.5095V75.8775L863.263 79.0135H848.991V62.7575C848.991 58.0855 848.031 55.5895 845.855 54.5015C845.663 54.5015 845.535 54.4375 845.407 54.4375C841.119 54.4375 840.991 55.1415 840.031 57.0615V75.8775L839.135 79.0135H824.671V59.8135C824.351 56.9975 823.391 55.2695 821.791 54.5015C821.599 54.5015 821.471 54.4375 821.343 54.4375C817.183 54.4375 816.671 55.3335 815.839 57.0615V75.8775L814.943 79.0135ZM884.769 55.6535H892.577C891.937 54.2455 890.977 53.2215 889.825 52.6455C886.497 52.7735 885.985 53.6695 884.769 55.6535ZM899.489 64.8055L907.681 68.2615L906.785 71.4615C903.201 77.4775 899.617 80.0375 889.761 80.0375C888.417 80.0375 887.073 79.8455 885.793 79.5895L882.849 78.9495C874.785 77.2215 868.769 70.2455 868.769 61.9895C868.769 57.1895 869.345 54.3735 873.953 49.8295L875.425 48.4215C876.897 46.9495 878.689 45.7335 880.609 44.8375L883.041 43.7495C885.345 42.7255 887.905 42.0855 890.657 42.0855C897.889 42.0855 908.257 47.2055 908.257 61.4135L907.361 64.5495H885.217C887.457 68.4535 890.593 69.1575 894.497 68.0055C895.329 67.4935 896.289 66.7255 897.121 65.9575L899.489 64.8055Z" fill="white"/>
</svg>
