<svg width="1073" height="182" viewBox="0 0 1073 182" fill="none" xmlns="http://www.w3.org/2000/svg">
<rect x="0.0527344" width="1072.89" height="182" rx="35" fill="#D9D9D9"/>
<path d="M153.448 114V67.4545H170.039C173.66 67.4545 176.66 68.1136 179.039 69.4318C181.417 70.75 183.198 72.553 184.379 74.8409C185.561 77.1136 186.152 79.6742 186.152 82.5227C186.152 85.3864 185.554 87.9621 184.357 90.25C183.175 92.5227 181.387 94.3258 178.993 95.6591C176.614 96.9773 173.622 97.6364 170.016 97.6364H158.607V91.6818H169.379C171.667 91.6818 173.523 91.2879 174.948 90.5C176.372 89.697 177.417 88.6061 178.084 87.2273C178.751 85.8485 179.084 84.2803 179.084 82.5227C179.084 80.7652 178.751 79.2045 178.084 77.8409C177.417 76.4773 176.364 75.4091 174.925 74.6364C173.501 73.8636 171.622 73.4773 169.289 73.4773H160.47V114H153.448ZM193.84 114V79.0909H200.408V84.6364H200.771C201.408 82.7576 202.529 81.2803 204.135 80.2045C205.756 79.1136 207.59 78.5682 209.635 78.5682C210.059 78.5682 210.559 78.5833 211.135 78.6136C211.726 78.6439 212.188 78.6818 212.521 78.7273V85.2273C212.249 85.1515 211.764 85.0682 211.067 84.9773C210.37 84.8712 209.673 84.8182 208.976 84.8182C207.37 84.8182 205.938 85.1591 204.681 85.8409C203.438 86.5076 202.453 87.4394 201.726 88.6364C200.999 89.8182 200.635 91.1667 200.635 92.6818V114H193.84ZM232.198 114.705C228.758 114.705 225.796 113.97 223.311 112.5C220.842 111.015 218.932 108.932 217.584 106.25C216.251 103.553 215.584 100.394 215.584 96.7727C215.584 93.197 216.251 90.0455 217.584 87.3182C218.932 84.5909 220.811 82.4621 223.22 80.9318C225.645 79.4015 228.478 78.6364 231.72 78.6364C233.69 78.6364 235.599 78.9621 237.448 79.6136C239.296 80.2652 240.955 81.2879 242.425 82.6818C243.895 84.0758 245.054 85.8864 245.902 88.1136C246.751 90.3258 247.175 93.0152 247.175 96.1818V98.5909H219.425V93.5H240.516C240.516 91.7121 240.152 90.1288 239.425 88.75C238.698 87.3561 237.675 86.2576 236.357 85.4545C235.054 84.6515 233.523 84.25 231.766 84.25C229.857 84.25 228.19 84.7197 226.766 85.6591C225.357 86.5833 224.266 87.7955 223.493 89.2955C222.736 90.7803 222.357 92.3939 222.357 94.1364V98.1136C222.357 100.447 222.766 102.432 223.584 104.068C224.417 105.705 225.576 106.955 227.061 107.818C228.546 108.667 230.281 109.091 232.266 109.091C233.554 109.091 234.728 108.909 235.789 108.545C236.849 108.167 237.766 107.606 238.539 106.864C239.311 106.121 239.902 105.205 240.311 104.114L246.743 105.273C246.228 107.167 245.304 108.826 243.97 110.25C242.652 111.659 240.993 112.758 238.993 113.545C237.008 114.318 234.743 114.705 232.198 114.705ZM280.874 87.6136L274.715 88.7045C274.457 87.9167 274.048 87.1667 273.487 86.4545C272.942 85.7424 272.2 85.1591 271.26 84.7045C270.321 84.25 269.146 84.0227 267.737 84.0227C265.813 84.0227 264.207 84.4545 262.919 85.3182C261.631 86.1667 260.987 87.2652 260.987 88.6136C260.987 89.7803 261.419 90.7197 262.283 91.4318C263.146 92.1439 264.54 92.7273 266.465 93.1818L272.01 94.4545C275.222 95.197 277.616 96.3409 279.192 97.8864C280.768 99.4318 281.556 101.439 281.556 103.909C281.556 106 280.95 107.864 279.737 109.5C278.54 111.121 276.866 112.394 274.715 113.318C272.578 114.242 270.101 114.705 267.283 114.705C263.374 114.705 260.184 113.871 257.715 112.205C255.245 110.523 253.73 108.136 253.169 105.045L259.737 104.045C260.146 105.758 260.987 107.053 262.26 107.932C263.533 108.795 265.192 109.227 267.237 109.227C269.465 109.227 271.245 108.765 272.578 107.841C273.912 106.902 274.578 105.758 274.578 104.409C274.578 103.318 274.169 102.402 273.351 101.659C272.548 100.917 271.313 100.356 269.646 99.9773L263.737 98.6818C260.48 97.9394 258.071 96.7576 256.51 95.1364C254.965 93.5152 254.192 91.4621 254.192 88.9773C254.192 86.9167 254.768 85.1136 255.919 83.5682C257.071 82.0227 258.662 80.8182 260.692 79.9545C262.722 79.0758 265.048 78.6364 267.669 78.6364C271.442 78.6364 274.412 79.4545 276.578 81.0909C278.745 82.7121 280.177 84.8864 280.874 87.6136ZM315.186 87.6136L309.027 88.7045C308.77 87.9167 308.36 87.1667 307.8 86.4545C307.254 85.7424 306.512 85.1591 305.573 84.7045C304.633 84.25 303.459 84.0227 302.05 84.0227C300.126 84.0227 298.52 84.4545 297.232 85.3182C295.944 86.1667 295.3 87.2652 295.3 88.6136C295.3 89.7803 295.732 90.7197 296.595 91.4318C297.459 92.1439 298.853 92.7273 300.777 93.1818L306.323 94.4545C309.535 95.197 311.929 96.3409 313.504 97.8864C315.08 99.4318 315.868 101.439 315.868 103.909C315.868 106 315.262 107.864 314.05 109.5C312.853 111.121 311.179 112.394 309.027 113.318C306.891 114.242 304.414 114.705 301.595 114.705C297.686 114.705 294.497 113.871 292.027 112.205C289.557 110.523 288.042 108.136 287.482 105.045L294.05 104.045C294.459 105.758 295.3 107.053 296.573 107.932C297.845 108.795 299.504 109.227 301.55 109.227C303.777 109.227 305.557 108.765 306.891 107.841C308.224 106.902 308.891 105.758 308.891 104.409C308.891 103.318 308.482 102.402 307.664 101.659C306.86 100.917 305.626 100.356 303.959 99.9773L298.05 98.6818C294.792 97.9394 292.383 96.7576 290.823 95.1364C289.277 93.5152 288.504 91.4621 288.504 88.9773C288.504 86.9167 289.08 85.1136 290.232 83.5682C291.383 82.0227 292.974 80.8182 295.004 79.9545C297.035 79.0758 299.361 78.6364 301.982 78.6364C305.754 78.6364 308.724 79.4545 310.891 81.0909C313.057 82.7121 314.489 84.8864 315.186 87.6136Z" fill="black"/>
<rect x="340.053" y="54.2637" width="75.894" height="73.4707" rx="11.2574" fill="#7A7A7A"/>
<path d="M377.075 116.438C368.813 116.427 351.51 116.438 351.51 116.438C351.51 116.438 351.217 111.159 351.341 107.77C351.487 103.898 351.623 100.408 353.851 97.1321C356.17 93.7324 359.604 92.2239 361.709 91.5485C357.217 90.2089 354.594 86.629 353.795 85.5145C351.465 82.2724 351.42 78.5125 351.341 73.0977C351.296 70.1708 351.735 67.3114 351.735 67.3114C351.825 66.6922 351.938 66.1181 352.028 65.6228L377.075 65.5215V78.2873C377.143 79.4693 378.167 80.3699 379.293 80.2911C380.34 80.2236 381.196 79.3343 381.229 78.231V65.7579L403.294 65.7241C403.767 67.1313 406.468 75.6756 401.65 83.7697C399.084 88.0925 395.515 90.3777 393.601 91.4134C395.582 92.2239 398.363 93.7437 400.671 96.5468C407.256 104.528 403.845 115.425 403.508 116.438C396.055 116.303 388.625 116.574 381.173 116.438L381.229 103.796C381.196 102.705 380.306 101.804 379.214 101.77C378.122 101.736 377.177 102.581 377.087 103.673V116.427L377.075 116.438Z" fill="white"/>
<path d="M451.737 114.773C449.525 114.773 447.525 114.364 445.737 113.545C443.949 112.712 442.532 111.508 441.487 109.932C440.457 108.356 439.942 106.424 439.942 104.136C439.942 102.167 440.32 100.545 441.078 99.2727C441.836 98 442.858 96.9924 444.146 96.25C445.434 95.5076 446.873 94.947 448.464 94.5682C450.055 94.1894 451.676 93.9015 453.328 93.7045C455.419 93.4621 457.116 93.2652 458.419 93.1136C459.722 92.947 460.669 92.6818 461.26 92.3182C461.851 91.9545 462.146 91.3636 462.146 90.5455V90.3864C462.146 88.4015 461.586 86.8636 460.464 85.7727C459.358 84.6818 457.707 84.1364 455.51 84.1364C453.222 84.1364 451.419 84.6439 450.101 85.6591C448.798 86.6591 447.896 87.7727 447.396 89L441.01 87.5455C441.767 85.4242 442.873 83.7121 444.328 82.4091C445.798 81.0909 447.487 80.1364 449.396 79.5455C451.305 78.9394 453.313 78.6364 455.419 78.6364C456.813 78.6364 458.29 78.803 459.851 79.1364C461.426 79.4545 462.896 80.0455 464.26 80.9091C465.639 81.7727 466.767 83.0076 467.646 84.6136C468.525 86.2045 468.964 88.2727 468.964 90.8182V114H462.328V109.227H462.055C461.616 110.106 460.957 110.97 460.078 111.818C459.199 112.667 458.07 113.371 456.692 113.932C455.313 114.492 453.661 114.773 451.737 114.773ZM453.214 109.318C455.093 109.318 456.699 108.947 458.032 108.205C459.381 107.462 460.404 106.492 461.101 105.295C461.813 104.083 462.169 102.788 462.169 101.409V96.9091C461.926 97.1515 461.457 97.3788 460.76 97.5909C460.078 97.7879 459.298 97.9621 458.419 98.1136C457.54 98.25 456.684 98.3788 455.851 98.5C455.017 98.6061 454.32 98.697 453.76 98.7727C452.442 98.9394 451.237 99.2197 450.146 99.6136C449.07 100.008 448.207 100.576 447.555 101.318C446.919 102.045 446.601 103.015 446.601 104.227C446.601 105.909 447.222 107.182 448.464 108.045C449.707 108.894 451.29 109.318 453.214 109.318ZM494.311 79.0909V84.5455H475.243V79.0909H494.311ZM480.356 70.7273H487.152V103.75C487.152 105.068 487.349 106.061 487.743 106.727C488.137 107.379 488.644 107.826 489.265 108.068C489.902 108.295 490.591 108.409 491.334 108.409C491.879 108.409 492.356 108.371 492.765 108.295C493.175 108.22 493.493 108.159 493.72 108.114L494.947 113.727C494.553 113.879 493.993 114.03 493.265 114.182C492.538 114.348 491.629 114.439 490.538 114.455C488.75 114.485 487.084 114.167 485.538 113.5C483.993 112.833 482.743 111.803 481.788 110.409C480.834 109.015 480.356 107.265 480.356 105.159V70.7273ZM535.061 79.0909V84.5455H515.993V79.0909H535.061ZM521.106 70.7273H527.902V103.75C527.902 105.068 528.099 106.061 528.493 106.727C528.887 107.379 529.394 107.826 530.015 108.068C530.652 108.295 531.341 108.409 532.084 108.409C532.629 108.409 533.106 108.371 533.515 108.295C533.925 108.22 534.243 108.159 534.47 108.114L535.697 113.727C535.303 113.879 534.743 114.03 534.015 114.182C533.288 114.348 532.379 114.439 531.288 114.455C529.5 114.485 527.834 114.167 526.288 113.5C524.743 112.833 523.493 111.803 522.538 110.409C521.584 109.015 521.106 107.265 521.106 105.159V70.7273ZM550.123 93.2727V114H543.328V67.4545H550.032V84.7727H550.464C551.282 82.8939 552.532 81.4015 554.214 80.2955C555.896 79.1894 558.093 78.6364 560.805 78.6364C563.199 78.6364 565.29 79.1288 567.078 80.1136C568.881 81.0985 570.275 82.5682 571.26 84.5227C572.26 86.4621 572.76 88.8864 572.76 91.7955V114H565.964V92.6136C565.964 90.053 565.305 88.0682 563.987 86.6591C562.669 85.2348 560.836 84.5227 558.487 84.5227C556.881 84.5227 555.442 84.8636 554.169 85.5455C552.911 86.2273 551.919 87.2273 551.192 88.5455C550.479 89.8485 550.123 91.4242 550.123 93.2727ZM596.873 114.705C593.434 114.705 590.472 113.97 587.987 112.5C585.517 111.015 583.608 108.932 582.26 106.25C580.926 103.553 580.26 100.394 580.26 96.7727C580.26 93.197 580.926 90.0455 582.26 87.3182C583.608 84.5909 585.487 82.4621 587.896 80.9318C590.32 79.4015 593.154 78.6364 596.396 78.6364C598.366 78.6364 600.275 78.9621 602.123 79.6136C603.972 80.2652 605.631 81.2879 607.101 82.6818C608.57 84.0758 609.729 85.8864 610.578 88.1136C611.426 90.3258 611.851 93.0152 611.851 96.1818V98.5909H584.101V93.5H605.192C605.192 91.7121 604.828 90.1288 604.101 88.75C603.373 87.3561 602.351 86.2576 601.032 85.4545C599.729 84.6515 598.199 84.25 596.442 84.25C594.532 84.25 592.866 84.7197 591.442 85.6591C590.032 86.5833 588.942 87.7955 588.169 89.2955C587.411 90.7803 587.032 92.3939 587.032 94.1364V98.1136C587.032 100.447 587.442 102.432 588.26 104.068C589.093 105.705 590.252 106.955 591.737 107.818C593.222 108.667 594.957 109.091 596.942 109.091C598.229 109.091 599.404 108.909 600.464 108.545C601.525 108.167 602.442 107.606 603.214 106.864C603.987 106.121 604.578 105.205 604.987 104.114L611.419 105.273C610.904 107.167 609.979 108.826 608.646 110.25C607.328 111.659 605.669 112.758 603.669 113.545C601.684 114.318 599.419 114.705 596.873 114.705ZM636.328 114V79.0909H642.896V84.6364H643.26C643.896 82.7576 645.017 81.2803 646.623 80.2045C648.245 79.1136 650.078 78.5682 652.123 78.5682C652.548 78.5682 653.048 78.5833 653.623 78.6136C654.214 78.6439 654.676 78.6818 655.01 78.7273V85.2273C654.737 85.1515 654.252 85.0682 653.555 84.9773C652.858 84.8712 652.161 84.8182 651.464 84.8182C649.858 84.8182 648.426 85.1591 647.169 85.8409C645.926 86.5076 644.942 87.4394 644.214 88.6364C643.487 89.8182 643.123 91.1667 643.123 92.6818V114H636.328ZM660.89 114V79.0909H667.686V114H660.89ZM664.322 73.7045C663.14 73.7045 662.125 73.3106 661.277 72.5227C660.443 71.7197 660.027 70.7651 660.027 69.6591C660.027 68.5379 660.443 67.5833 661.277 66.7955C662.125 65.9924 663.14 65.5909 664.322 65.5909C665.504 65.5909 666.512 65.9924 667.345 66.7955C668.193 67.5833 668.618 68.5379 668.618 69.6591C668.618 70.7651 668.193 71.7197 667.345 72.5227C666.512 73.3106 665.504 73.7045 664.322 73.7045ZM691.464 127.818C688.692 127.818 686.305 127.455 684.305 126.727C682.32 126 680.699 125.038 679.442 123.841C678.184 122.644 677.245 121.333 676.623 119.909L682.464 117.5C682.873 118.167 683.419 118.871 684.101 119.614C684.798 120.371 685.737 121.015 686.919 121.545C688.116 122.076 689.654 122.341 691.532 122.341C694.108 122.341 696.237 121.712 697.919 120.455C699.601 119.212 700.442 117.227 700.442 114.5V107.636H700.01C699.601 108.379 699.01 109.205 698.237 110.114C697.479 111.023 696.434 111.811 695.101 112.477C693.767 113.144 692.032 113.477 689.896 113.477C687.139 113.477 684.654 112.833 682.442 111.545C680.245 110.242 678.502 108.326 677.214 105.795C675.942 103.25 675.305 100.121 675.305 96.4091C675.305 92.697 675.934 89.5152 677.192 86.8636C678.464 84.2121 680.207 82.1818 682.419 80.7727C684.631 79.3485 687.139 78.6364 689.942 78.6364C692.108 78.6364 693.858 79 695.192 79.7273C696.525 80.4394 697.563 81.2727 698.305 82.2273C699.063 83.1818 699.646 84.0227 700.055 84.75H700.555V79.0909H707.214V114.773C707.214 117.773 706.517 120.235 705.123 122.159C703.729 124.083 701.843 125.508 699.464 126.432C697.101 127.356 694.434 127.818 691.464 127.818ZM691.396 107.841C693.351 107.841 695.002 107.386 696.351 106.477C697.714 105.553 698.745 104.235 699.442 102.523C700.154 100.795 700.51 98.7273 700.51 96.3182C700.51 93.9697 700.161 91.9015 699.464 90.1136C698.767 88.3258 697.745 86.9318 696.396 85.9318C695.048 84.9167 693.381 84.4091 691.396 84.4091C689.351 84.4091 687.646 84.9394 686.282 86C684.919 87.0455 683.889 88.4697 683.192 90.2727C682.51 92.0758 682.169 94.0909 682.169 96.3182C682.169 98.6061 682.517 100.614 683.214 102.341C683.911 104.068 684.942 105.417 686.305 106.386C687.684 107.356 689.381 107.841 691.396 107.841ZM723.123 93.2727V114H716.328V67.4545H723.032V84.7727H723.464C724.282 82.8939 725.532 81.4015 727.214 80.2955C728.896 79.1894 731.093 78.6364 733.805 78.6364C736.199 78.6364 738.29 79.1288 740.078 80.1136C741.881 81.0985 743.275 82.5682 744.26 84.5227C745.26 86.4621 745.76 88.8864 745.76 91.7955V114H738.964V92.6136C738.964 90.053 738.305 88.0682 736.987 86.6591C735.669 85.2348 733.836 84.5227 731.487 84.5227C729.881 84.5227 728.442 84.8636 727.169 85.5455C725.911 86.2273 724.919 87.2273 724.192 88.5455C723.479 89.8485 723.123 91.4242 723.123 93.2727ZM771.123 79.0909V84.5455H752.055V79.0909H771.123ZM757.169 70.7273H763.964V103.75C763.964 105.068 764.161 106.061 764.555 106.727C764.949 107.379 765.457 107.826 766.078 108.068C766.714 108.295 767.404 108.409 768.146 108.409C768.692 108.409 769.169 108.371 769.578 108.295C769.987 108.22 770.305 108.159 770.532 108.114L771.76 113.727C771.366 113.879 770.805 114.03 770.078 114.182C769.351 114.348 768.442 114.439 767.351 114.455C765.563 114.485 763.896 114.167 762.351 113.5C760.805 112.833 759.555 111.803 758.601 110.409C757.646 109.015 757.169 107.265 757.169 105.159V70.7273ZM811.873 79.0909V84.5455H792.805V79.0909H811.873ZM797.919 70.7273H804.714V103.75C804.714 105.068 804.911 106.061 805.305 106.727C805.699 107.379 806.207 107.826 806.828 108.068C807.464 108.295 808.154 108.409 808.896 108.409C809.442 108.409 809.919 108.371 810.328 108.295C810.737 108.22 811.055 108.159 811.282 108.114L812.51 113.727C812.116 113.879 811.555 114.03 810.828 114.182C810.101 114.348 809.192 114.439 808.101 114.455C806.313 114.485 804.646 114.167 803.101 113.5C801.555 112.833 800.305 111.803 799.351 110.409C798.396 109.015 797.919 107.265 797.919 105.159V70.7273ZM819.39 114V79.0909H826.186V114H819.39ZM822.822 73.7045C821.64 73.7045 820.625 73.3106 819.777 72.5227C818.943 71.7197 818.527 70.7651 818.527 69.6591C818.527 68.5379 818.943 67.5833 819.777 66.7955C820.625 65.9924 821.64 65.5909 822.822 65.5909C824.004 65.5909 825.012 65.9924 825.845 66.7955C826.693 67.5833 827.118 68.5379 827.118 69.6591C827.118 70.7651 826.693 71.7197 825.845 72.5227C825.012 73.3106 824.004 73.7045 822.822 73.7045ZM835.328 114V79.0909H841.851V84.7727H842.282C843.01 82.8485 844.199 81.3485 845.851 80.2727C847.502 79.1818 849.479 78.6364 851.782 78.6364C854.116 78.6364 856.07 79.1818 857.646 80.2727C859.237 81.3636 860.411 82.8636 861.169 84.7727H861.532C862.366 82.9091 863.692 81.4242 865.51 80.3182C867.328 79.197 869.495 78.6364 872.01 78.6364C875.176 78.6364 877.76 79.6288 879.76 81.6136C881.775 83.5985 882.782 86.5909 882.782 90.5909V114H875.987V91.2273C875.987 88.8636 875.343 87.1515 874.055 86.0909C872.767 85.0303 871.229 84.5 869.442 84.5C867.229 84.5 865.51 85.1818 864.282 86.5455C863.055 87.8939 862.442 89.6288 862.442 91.75V114H855.669V90.7955C855.669 88.9015 855.078 87.3788 853.896 86.2273C852.714 85.0758 851.176 84.5 849.282 84.5C847.995 84.5 846.805 84.8409 845.714 85.5227C844.639 86.1894 843.767 87.1212 843.101 88.3182C842.449 89.5152 842.123 90.9015 842.123 92.4773V114H835.328ZM906.936 114.705C903.497 114.705 900.534 113.97 898.05 112.5C895.58 111.015 893.671 108.932 892.322 106.25C890.989 103.553 890.322 100.394 890.322 96.7727C890.322 93.197 890.989 90.0455 892.322 87.3182C893.671 84.5909 895.55 82.4621 897.959 80.9318C900.383 79.4015 903.216 78.6364 906.459 78.6364C908.428 78.6364 910.337 78.9621 912.186 79.6136C914.034 80.2652 915.693 81.2879 917.163 82.6818C918.633 84.0758 919.792 85.8864 920.64 88.1136C921.489 90.3258 921.913 93.0152 921.913 96.1818V98.5909H894.163V93.5H915.254C915.254 91.7121 914.89 90.1288 914.163 88.75C913.436 87.3561 912.413 86.2576 911.095 85.4545C909.792 84.6515 908.262 84.25 906.504 84.25C904.595 84.25 902.928 84.7197 901.504 85.6591C900.095 86.5833 899.004 87.7955 898.231 89.2955C897.474 90.7803 897.095 92.3939 897.095 94.1364V98.1136C897.095 100.447 897.504 102.432 898.322 104.068C899.156 105.705 900.315 106.955 901.8 107.818C903.284 108.667 905.019 109.091 907.004 109.091C908.292 109.091 909.466 108.909 910.527 108.545C911.587 108.167 912.504 107.606 913.277 106.864C914.05 106.121 914.64 105.205 915.05 104.114L921.481 105.273C920.966 107.167 920.042 108.826 918.709 110.25C917.39 111.659 915.731 112.758 913.731 113.545C911.747 114.318 909.481 114.705 906.936 114.705Z" fill="black"/>
</svg>
