<svg width="115" height="109" viewBox="0 0 115 109" fill="none" xmlns="http://www.w3.org/2000/svg">
<path d="M92.7931 12.044C93.3623 12.5113 93.3744 21.2704 98.0731 25.7997C100.955 28.5796 106.211 28.8433 106.598 29.4424C107.991 31.6232 104.758 39.0043 112.496 41.3409C109.202 53.7307 111.564 62.2022 105.799 74.9035C86.3264 117.812 47.3269 115.095 18.3841 86.8408C13.6491 82.2156 7.61159 82.5483 4.42667 67.8339C3.96649 65.713 2.96136 37.2429 3.28833 35.6013C4.18447 31.1559 9.57341 32.2223 10.1305 31.4434C10.9055 30.365 9.51286 26.4228 10.8813 24.7093C22.3252 10.3784 22.5553 20.0003 32.6671 15.2193C36.5423 13.386 38.0803 7.45472 41.1925 6.59198C43.8204 5.86106 58.1465 6.55604 61.7795 6.19657C67.2532 5.65736 73.066 1.78705 73.6957 1.73912C76.5415 1.52344 78.1158 9.33595 82.6329 11.1693C85.733 12.4154 92.3935 11.7204 92.7931 12.044Z" fill="white" fill-opacity="0.5"/>
<path d="M63.7367 108.305C62.2684 108.305 60.7858 108.233 59.2817 108.098C58.9953 108.069 58.6371 108.098 58.2575 108.112C57.7132 108.141 57.0972 108.176 56.4526 108.091C41.4332 106.02 22.5605 98.1005 15.7419 85.5181C14.4026 85.3896 13.0274 84.7826 11.6308 83.6972C6.6959 79.8696 2.52743 70.9077 2.23377 67.7014C2.0762 66.009 2.47729 64.181 2.85689 62.4171C3.26515 60.5319 3.69489 58.5753 3.37258 57.04C3.2938 56.6473 3.08609 56.433 2.59189 55.9403C1.77538 55.1048 0.521973 53.8623 0.521973 51.163C0.521973 48.8279 1.58916 47.4854 2.36985 46.5071C2.95717 45.7716 3.26515 45.3574 3.36542 44.679C3.54448 43.3865 3.22933 41.9155 2.8927 40.3587C2.06904 36.5526 0.958875 31.4183 8.9019 28.9047C9.66111 24.1845 15.5987 16.3866 17.8548 15.1512C20.7341 13.573 24.2866 13.5945 27.395 13.5802C29.6369 13.5802 31.7641 13.5802 33.1965 13.0232C33.7265 12.7947 35.0086 11.1237 35.7821 10.124C37.451 7.9531 39.0338 5.91079 40.9247 5.39664C42.7654 4.89678 44.3554 5.26096 45.6375 5.55374C46.4182 5.73227 47.0915 5.88937 47.5713 5.7894C48.3592 5.62515 49.4121 5.18956 50.5365 4.73253C53.6307 3.46145 57.7848 1.75476 61.5665 3.58284C64.4171 2.1975 73.2984 -1.68718 77.6818 1.41199C79.1142 2.42601 79.9666 3.96845 80.7902 5.45377C81.5065 6.74628 82.1869 7.97453 83.0464 8.43869C84.0992 9.00282 85.8827 9.15992 87.6159 9.30274C90.2015 9.52411 92.8659 9.75262 94.327 11.4879C95.3154 12.6661 95.6664 14.6299 96.132 17.7362C96.3253 19.0287 96.5402 20.4783 96.798 21.221C97.7291 22.4921 100.515 23.7417 102.764 24.7558C106.059 26.2411 108.902 27.5193 109.633 29.7616C110.256 31.6825 109.604 33.1821 109.132 34.2746C108.902 34.7888 108.709 35.2458 108.738 35.5243C108.96 35.8885 110.005 36.6169 110.7 37.0953C112.555 38.3807 114.654 39.8303 114.876 42.1226C115.083 44.272 113.938 45.2146 113.243 45.7787C112.648 46.2643 112.226 46.6142 112.097 48.2209C111.817 51.7985 111.825 54.7263 111.825 57.3185C111.832 64.4809 111.839 69.6581 106.123 79.8839C95.6879 98.5575 81.0982 108.312 63.7367 108.312V108.305ZM58.9666 104.513C59.1743 104.513 59.3963 104.52 59.6184 104.542C82.1153 106.634 95.6306 91.338 103.008 78.1415C108.265 68.7297 108.258 64.1881 108.251 57.3185C108.251 54.6621 108.243 51.6557 108.53 47.9424C108.773 44.8218 110.149 43.6936 110.972 43.0223C111.101 42.9152 111.273 42.7795 111.323 42.7081C111.323 42.701 111.323 42.6224 111.309 42.4653C111.244 41.8155 109.626 40.6944 108.652 40.0231C107.076 38.9305 105.586 37.8951 105.242 36.3241C104.934 34.9173 105.436 33.7676 105.844 32.8393C106.231 31.9538 106.424 31.4611 106.224 30.847C105.952 30.0901 103.029 28.7833 101.289 27.9978C98.2448 26.6267 95.0934 25.2128 93.6824 22.9991C93.6251 22.9134 93.5822 22.8277 93.5392 22.7349C93.0808 21.6423 92.8373 19.9927 92.5794 18.2504C92.3646 16.7793 91.9921 14.3157 91.5767 13.773C91.0753 13.1803 88.898 12.9875 87.3008 12.8518C85.2094 12.6733 83.0392 12.4876 81.3346 11.5664C79.544 10.6024 78.5341 8.77431 77.646 7.1676C76.987 5.97506 76.3639 4.85393 75.5975 4.31122C73.5491 2.8616 66.9813 4.65398 62.3687 7.16046C61.7886 7.47466 61.0795 7.4461 60.528 7.08191C58.0856 5.47519 54.7981 6.82483 51.8902 8.01737C50.6153 8.53866 49.4121 9.03853 48.3019 9.26704C47.0556 9.53125 45.8667 9.2599 44.8282 9.0171C43.761 8.77431 42.837 8.56008 41.8701 8.8243C41.1396 9.02425 39.5638 11.0666 38.6256 12.2877C37.186 14.1586 35.9397 15.7724 34.5144 16.3294C32.4445 17.1435 29.9878 17.1292 27.395 17.1364C24.5802 17.1364 21.6509 17.1364 19.5809 18.2646C17.6614 19.3144 12.0318 27.9263 12.4043 29.8473C12.5833 30.7756 12.0175 31.7468 11.0936 31.9753C5.07722 33.482 5.54277 35.6529 6.39509 39.5875C6.78185 41.3799 7.18294 43.2294 6.91794 45.1503C6.68158 46.8284 5.85075 47.871 5.17749 48.7137C4.51139 49.5491 4.1103 50.049 4.1103 51.1344C4.1103 52.3555 4.47558 52.7197 5.13451 53.3767C5.75048 53.9837 6.58847 54.8263 6.88929 56.2831C7.362 58.5539 6.83199 60.9889 6.36644 63.1384C6.02264 64.7094 5.70034 66.1947 5.80777 67.3444C6.01548 69.6152 9.68976 77.6345 13.8439 80.8551C14.5745 81.4263 15.6488 82.069 16.5656 81.9262C17.3535 81.8048 18.1198 82.2047 18.4636 82.9188C24.6017 95.7297 44.8497 102.863 56.9612 104.527C57.262 104.57 57.6559 104.549 58.0713 104.527C58.3578 104.513 58.6586 104.492 58.9809 104.492L58.9666 104.513Z" fill="white"/>
</svg>
