<svg width="1218" height="105" viewBox="0 0 1218 105" fill="none" xmlns="http://www.w3.org/2000/svg">
<path fill-rule="evenodd" clip-rule="evenodd" d="M609.082 104.974V105C620.055 104.666 630.985 100.571 641.48 94.1847C644.39 92.4136 646.262 90.4195 648.054 88.512C651.221 85.1394 654.134 82.0372 662.078 80.9161C698.795 75.7325 750.036 75.6952 796.373 75.6615C815.616 75.6475 834.012 75.6341 850.172 75.253C904.753 73.9713 959.366 73.4923 1013.98 73.0134C1082.01 72.4167 1150.04 71.8201 1218 69.6718L1216.87 56.1927L665.16 37.9514C662.748 37.1293 659.685 36.0348 658.763 33.4507C658.504 32.7234 658.693 31.7025 658.881 30.6829C659.11 29.4447 659.338 28.2085 658.763 27.5028C655.944 24.0411 651.333 22.1473 648.578 21.0154L648.576 21.0149C647.965 20.7638 647.445 20.5502 647.056 20.3653C646.804 20.2439 646.726 19.4101 646.619 18.2542C646.374 15.6228 645.974 11.3222 643.004 9.95647C642.513 9.73188 641.96 9.47723 641.365 9.20309L641.364 9.20263C637.805 7.56299 632.733 5.22648 630.396 4.45466C631.141 -1.59992 624.685 -0.183821 618.208 1.23672C614.833 1.97705 611.452 2.71859 609.082 2.40449V3.1947C602.676 2.91133 596.247 5.06835 592.684 6.26371L592.683 6.26418C592.373 6.36798 592.086 6.46451 591.821 6.55157C590.488 6.99198 589.662 8.08038 588.767 9.26115C587.831 10.4958 586.818 11.8316 585.067 12.633C583.446 13.3786 581.499 13.5586 579.357 13.7567C575.851 14.0809 571.82 14.4537 567.828 17.4332C567.316 17.6763 566.516 19.198 565.566 21.0025C564.571 22.8936 563.413 25.0953 562.253 26.4619C561.08 27.8427 559.903 28.6232 558.865 29.3113C557.578 30.1639 556.506 30.8746 555.923 32.4098C555.241 34.2031 556.135 35.1925 556.761 35.8863C557.396 36.5897 557.757 36.9891 555.923 37.6142L1.13381 56.2208L0 69.6999C67.9633 71.8482 135.992 72.4449 204.022 73.0415C258.634 73.5204 313.247 73.9994 367.828 75.2811C383.988 75.6622 402.384 75.6756 421.627 75.6896C467.964 75.7233 519.205 75.7606 555.923 80.9443C563.866 82.0653 566.779 85.1675 569.946 88.5401C571.738 90.4476 573.61 92.4417 576.52 94.2128C586.618 100.358 597.119 104.381 607.673 104.974H609.082Z" fill="#D9D9D9" fill-opacity="0.23"/>
</svg>
